<svg xmlns="http://www.w3.org/2000/svg" width="11" height="11" viewBox="0 0 11 11"><path d="M10.8 9.8c-0.2 0.4-0.6 0.6-1 0.8C9.3 10.9 8.9 11 8.4 11c-0.7 0-1.4-0.3-2-0.5 -0.5-0.2-0.9-0.4-1.4-0.6 -1.3-0.8-2.9-2.4-3.7-3.7C0.9 5.6 0.7 5.2 0.5 4.7 0.3 4 0 3.4 0 2.6c0-0.5 0.1-1 0.4-1.5 0.2-0.4 0.4-0.8 0.8-1C1.5 0.1 2 0 2.3 0c0.1 0 0.1 0 0.2 0 0.2 0.1 0.3 0.4 0.4 0.6 0.3 0.4 0.5 0.9 0.8 1.3C3.8 2.2 4 2.4 4 2.6 4 3.1 2.6 3.8 2.6 4.2c0 0.2 0.2 0.5 0.3 0.7C3.7 6.3 4.7 7.3 6.1 8.1c0.2 0.1 0.5 0.3 0.7 0.3C7.2 8.4 7.9 7 8.4 7 8.6 7 8.8 7.2 9 7.4c0.4 0.3 0.9 0.5 1.3 0.8 0.2 0.1 0.5 0.3 0.6 0.4C11 8.6 11 8.6 11 8.7 11 9 10.9 9.5 10.8 9.8z" fill="#E45028"/></svg>
