<svg xmlns="http://www.w3.org/2000/svg" width="73" height="86" viewBox="0 0 73 85.9"><style>.a{fill:#F9B43B;}</style><path d="M10.7 61l2.1-0.4c0.2 0 0.3-0.1 0.2-0.3l-0.5-3.4c0.3-0.2 0.6-0.3 0.9-0.5 0.1 0 0.1-0.1 0.2-0.1 0.1 0 0.1-0.1 0.2-0.1l0.2-0.1c0.1 0 0.2 0 0.3-0.1l0.4 3c0 0 0.1 0 0.1 0 0 0 0 0-0.1 0l0.1 0.4 0 0 0 0c0 0 0 0 0 0.1l0 0.2c0 0.2 0.2 0.3 0.3 0.2l2.1-0.4c0.2 0 0.3-0.1 0.2-0.3 -0.2-1.4-0.5-2.9-0.7-4.3 -0.2-1.6-0.4-3.3-0.6-5 0-0.1 0-0.2-0.1-0.2 -0.1 0-0.1-0.1-0.2 0l-1.9 0.3c-0.2 0-0.3 0.1-0.2 0.3l0.4 3.4 -1.3 0.3c0 0 0.1 0 0.1 0 0 0 0 0.1 0 0.1 0 0-0.1 0-0.1 0l0 0 -0.6 0.1 -0.4-3.4c0-0.2-0.2-0.3-0.4-0.2l-1.8 0.4c-0.2 0-0.3 0.1-0.2 0.3l1 9.4C10.4 60.9 10.5 61 10.7 61zM12.7 59l0 0L12.6 59l0 0L12.7 59zM12.8 55c0 0 0 0 0 0l0 0L12.8 55zM12.8 54.8l0 0c0 0 0 0 0 0 0 0 0 0 0 0 0 0 0 0 0 0L12.8 54.8zM13 55.2l0 0 0 0 0 0L13 55.2zM13.8 55.2l0 0 0 0 0 0L13.8 55.2zM14.2 55.4c0 0 0 0.1-0.1 0.1l-0.1 0c0 0 0 0 0 0 0 0 0 0 0 0l0-0.1c0 0 0.1 0 0.1 0l0.1 0C14.2 55.3 14.2 55.3 14.2 55.4zM14.1 54.7l0 0 0.1 0 0 0L14.1 54.7zM14.4 55.4l-0.1 0c0 0 0 0-0.1 0l0 0 0.1 0 0 0.1C14.5 55.3 14.5 55.4 14.4 55.4zM14.5 55l0 0 -0.1 0 0 0L14.5 55zM14.4 54.5c0 0 0 0 0 0l0.1 0 0 0C14.4 54.5 14.4 54.5 14.4 54.5zM14.8 57.8c0 0 0 0-0.1 0 0 0 0 0 0-0.1l0.1 0 0 0C14.8 57.8 14.8 57.8 14.8 57.8zM14.7 55.6c0 0 0.1 0 0.1 0 0 0 0 0 0 0.1L14.7 55.6zM14.9 58.8l0 0 0 0 0 0c0 0 0.1 0 0.1 0 0 0 0 0-0.1 0l0 0L14.9 58.8zM15.9 58.7c0 0 0-0.1 0-0.1 0 0 0 0 0 0.1 0 0 0 0.1 0 0.1L15.9 58.7zM16.3 59.5l0 0 0 0c0 0 0 0 0 0C16.3 59.5 16.3 59.5 16.3 59.5zM16.4 59.1c0 0 0 0 0 0 0 0 0 0 0 0 0 0 0 0 0 0l0.1 0c0 0 0 0 0 0L16.4 59.1zM16.5 58.9l0 0c0 0 0 0 0-0.1 0 0 0 0-0.1 0 0 0 0 0 0.1-0.1l0 0c0 0 0 0 0 0l0 0.1c0 0 0 0 0 0.1 0 0 0 0.1 0 0.1C16.5 58.8 16.4 58.8 16.5 58.9zM16.7 59l0 0.1 0 0 0-0.1L16.7 59zM16.7 59.5c0 0-0.1 0-0.1 0.1l0 0c0 0 0 0 0 0l0 0c0 0 0 0 0 0 0 0 0 0 0 0 0 0 0 0 0.1 0 0 0 0 0 0.1 0L16.7 59.5zM16.6 55.4l0.1 0.3c0 0-0.1 0-0.1 0l0-0.3L16.6 55.4zM16.4 57.7l0 0c0 0 0 0 0 0l0 0c0 0 0 0 0 0l0 0 0 0c0 0 0 0 0 0 0 0 0 0 0.1 0 0 0 0 0 0 0 0 0 0 0 0 0l0 0.1c0 0-0.1 0-0.1 0l-0.1 0c0 0 0 0 0 0 0 0 0-0.1-0.1-0.1 0 0 0 0 0-0.1C16.3 57.8 16.4 57.7 16.4 57.7zM16.2 58.2c0 0 0 0 0.1 0 0 0 0 0 0.1 0 0 0 0 0 0 0 0 0 0 0-0.1 0 0 0-0.1 0-0.1 0L16.2 58.2zM16.2 57.9l0 0 -0.1 0c0 0 0 0 0.1-0.1L16.2 57.9zM16 57.6l0 0c0 0 0 0 0 0l0 0c0 0 0 0 0 0l0 0 -0.1 0c0 0 0 0 0 0C16 57.6 16 57.6 16 57.6zM15.9 57.8l0.1 0 0 0.1c0 0-0.1 0-0.1 0l0 0c0 0 0-0.1 0-0.1C15.9 57.7 15.9 57.8 15.9 57.8zM15.8 55.3c0 0 0 0 0 0 0 0 0 0 0 0 0 0.1 0 0.1-0.1 0.1 0 0 0 0 0 0C15.8 55.4 15.8 55.4 15.8 55.3zM15.8 57.1c0 0 0 0.1-0.1 0.1C15.8 57.1 15.8 57.1 15.8 57.1zM15.8 58.1c0 0 0.1 0 0.1 0 0 0 0 0 0-0.1l0.1 0 0 0 0 0 0 0c0 0 0 0-0.1 0 0 0 0 0 0 0 0 0 0 0-0.1 0 0 0 0 0-0.1 0L15.8 58.1zM15.7 58.5c-0.1 0-0.1 0-0.1-0.1 0 0 0 0 0.1 0C15.7 58.5 15.7 58.5 15.7 58.5zM15.6 56.9c0 0 0 0 0 0.1l0 0 -0.1 0 0-0.1L15.6 56.9zM15.5 59.8l-0.1 0c-0.1 0-0.1 0-0.1-0.1 0 0 0 0 0-0.1 0.1 0 0.1 0.1 0.2 0.1C15.5 59.8 15.5 59.8 15.5 59.8zM15.3 59.1l0 0c0 0-0.1 0 0 0L15.3 59.1zM15.3 58.2l0 0 0 0 0 0L15.3 58.2zM15.4 56l0-0.1 0 0 0 0.1L15.4 56zM15.5 55.3l0 0.1 -0.2 0 0-0.1 0 0 0.1 0C15.5 55.3 15.5 55.3 15.5 55.3zM15.3 52.9l0.1 0.1c0 0 0 0-0.1 0 0 0-0.1 0-0.1 0L15.3 52.9zM15.3 56.5c0 0 0 0 0 0 0 0 0 0 0 0l0 0 0 0 -0.1 0 0-0.1L15.3 56.5zM15.1 59.5c0 0 0.1 0 0.1 0 0 0 0 0 0.1 0 0 0 0 0 0 0l0 0 0 0c0 0.1-0.1 0.1-0.1 0.1 0 0-0.1 0-0.1 0.1C15.1 59.6 15.1 59.5 15.1 59.5zM14.9 59.5c0 0-0.1 0 0-0.1 0 0 0.1 0 0.1 0 0 0 0.1 0 0.1 0L14.9 59.5zM15 51.2l0 0.1 0 0 0-0.1L15 51.2zM14.9 54.7c0 0 0 0 0 0l0 0c0 0 0 0 0 0 0 0 0 0 0 0 0 0-0.1 0-0.1 0l-0.1 0c0 0 0 0-0.1 0l0-0.1c0.1 0 0.1 0 0.1 0L14.9 54.7zM14.8 51.4l0 0 0 0 0 0L14.8 51.4zM14.7 51.7l0 0.1 0 0 0-0.1L14.7 51.7zM14.7 57.2l0.1 0 0 0c0 0 0 0 0 0l-0.1 0C14.7 57.2 14.7 57.2 14.7 57.2zM14.6 52.3l-0.1 0 0 0 0.1 0L14.6 52.3zM14.4 52.1l0 0 -0.1 0 0 0L14.4 52.1zM14.3 54.8c0 0 0.1 0 0.1 0l-0.1 0L14.3 54.8zM14.2 51.2c0 0 0 0 0 0l-0.1 0.1c0 0-0.1 0-0.1-0.1L14.2 51.2zM13.9 54.5c0 0 0.1 0 0.1 0 0 0 0.1 0 0.1-0.1 0 0 0 0 0.1 0 -0.1 0.1-0.1 0.1-0.1 0.1 0 0-0.1 0.1-0.2 0.1 0 0 0 0 0-0.1C13.8 54.6 13.9 54.5 13.9 54.5zM13.5 54.3l0 0 0 0 0 0L13.5 54.3zM13.5 54.9l0 0 0 0c0 0 0 0 0 0l0.1 0 0 0c0 0 0.1 0 0.1-0.1 0 0 0.1 0.1 0.1 0.1 0 0 0 0 0 0l0.1 0c0 0-0.1 0.1-0.1 0.1 0 0-0.1 0-0.1 0 0 0-0.1 0-0.1 0.1 0 0 0.1 0 0.1 0 0 0 0 0 0 0l0 0c0.1 0 0.1 0 0.2 0.1l0 0.1 -0.2 0c0 0-0.1-0.1-0.2-0.1 -0.1 0-0.1 0-0.1-0.1l-0.1 0C13.4 54.9 13.4 54.9 13.5 54.9zM13.3 54.5l0.1 0 0 0c0 0 0 0 0 0l0 0.1c0 0-0.1 0-0.1 0l0 0L13.3 54.5zM13.2 54.6c0 0 0 0 0 0 0 0 0 0.1-0.1 0.1 0 0 0 0 0 0l-0.1-0.1c0-0.1 0-0.1 0-0.1 0.1 0 0.1 0 0.1 0C13.2 54.6 13.2 54.6 13.2 54.6zM13 54.3c0 0 0.1 0 0.1 0 0 0 0 0 0 0 0 0 0 0 0 0 0 0 0 0-0.1 0 0 0 0 0-0.1 0l0 0C13 54.3 13 54.3 13 54.3zM12.8 54.7l0 0 0.1 0 0 0L12.8 54.7zM12.8 54.5l0.1 0c0 0.1-0.1 0.1-0.1 0.1C12.8 54.6 12.8 54.5 12.8 54.5zM10.8 59.6c-0.1 0-0.1 0-0.2 0 0 0 0 0 0-0.1 0.1 0 0.1 0 0.2 0l0 0.1C10.8 59.6 10.8 59.6 10.8 59.6zM10.6 52.7l0 0 0 0 0 0L10.6 52.7zM10.8 58.3l0 0 0 0 0 0L10.8 58.3zM10.8 58.5l0 0 0 0 0 0L10.8 58.5zM11 59.3l0-0.1 0 0 0 0.1L11 59.3zM11.1 59.8c0 0 0 0 0 0 0 0 0 0 0 0.1l0-0.2 0 0C11.1 59.8 11.1 59.8 11.1 59.8zM11.3 58.7c0 0 0 0-0.1 0 0 0 0 0 0 0l0.1 0c0 0 0 0 0 0C11.3 58.6 11.3 58.6 11.3 58.7zM11.3 57c0 0-0.1 0-0.1 0.1 0 0 0 0 0 0 0 0 0-0.1-0.1-0.1 0 0 0-0.1-0.1-0.1l0.2-0.1c0 0 0 0 0 0s0 0 0 0.1C11.4 56.9 11.4 57 11.3 57zM11.5 52.8l0 0 -0.2 0 0-0.1 0.1-0.1 0.1 0c0 0 0 0 0 0.1 0 0 0 0 0 0.1 0 0 0.1 0 0.1 0.1L11.5 52.8zM12.1 58.5c0 0 0 0 0 0 0 0 0 0 0 0 0 0 0 0 0 0 0 0 0 0 0 0L12.1 58.5zM12.3 58.6l0 0c0 0 0 0 0 0l-0.1 0L12.3 58.6zM12.2 57.2l0 0 -0.1 0 0 0L12.2 57.2zM12.1 58.2c0 0 0 0 0 0 0.1 0 0.1 0 0.1 0.1s0 0.1-0.1 0.1c0 0 0 0 0-0.1 0 0 0 0 0 0C12.1 58.2 12.1 58.2 12.1 58.2zM12 56.8l0 0 0 0 0 0L12 56.8zM12.1 57.6c-0.1 0-0.1 0.1-0.1 0.1l-0.1 0c0 0 0-0.1 0.1-0.1C12 57.6 12.1 57.6 12.1 57.6zM11.8 56.7l0 0c0 0 0 0 0 0 0 0 0.1 0 0.1 0l0 0c0 0-0.1 0-0.1 0l0 0 0-0.1L11.8 56.7zM11.8 58.6c0 0 0.1 0 0.1 0 0 0 0 0 0 0 0 0.1-0.1 0.1-0.2 0.1 0 0 0 0 0 0 0 0 0 0-0.1 0 0-0.1 0-0.1 0.1-0.1 0 0 0 0 0.1 0C11.8 58.6 11.8 58.6 11.8 58.6zM11.6 56.7c0 0 0.1 0 0.1 0l0 0 0 0 0 0c0 0 0 0-0.1 0 0 0-0.1 0-0.1 0L11.6 56.7zM11.6 58.9c0 0 0.1 0 0.1 0 0 0 0.1 0 0.1 0 0 0 0 0 0 0.1l-0.1 0c0 0 0 0 0 0 0 0 0 0 0 0C11.6 59 11.6 59 11.6 58.9zM10 51.7c0 0-0.1 0-0.1 0l0-0.1c0 0 0 0 0 0 0 0 0.1 0 0.1 0l0 0c0 0 0 0 0 0 0 0 0 0 0 0 0 0 0 0 0.1 0C10.1 51.6 10 51.7 10 51.7zM10.2 51.9l0-0.1 0 0 0 0.1L10.2 51.9zM10.4 51.3c0 0 0.1 0 0.1-0.1l0.1 0 0 0c0 0 0 0 0 0l0.1 0c0 0 0.1 0 0.1 0l0.1 0c0 0 0.1 0 0.1 0l0 0c0 0 0.2 0 0.3 0 0.1 0 0.1 0 0.1 0.1l0 0.1c0 0 0 0-0.1 0l0 0c-0.2 0-0.4 0.1-0.5 0.1 -0.1 0-0.1 0-0.2 0 0 0-0.1 0-0.1 0l-0.1 0c-0.1 0-0.2 0-0.3 0C10.3 51.4 10.3 51.3 10.4 51.3z" class="a"/><path d="M23.2 56.7l0.4 1.7c0 0.2 0.2 0.2 0.3 0.2l2.2-0.4c0 0 0 0 0 0 0 0.1 0.1 0.1 0.1 0.2 0.1-0.1 0.2-0.2 0.2-0.2 0-0.1 0-0.1-0.1-0.2 0 0 0-0.1 0-0.2l-1.4-4c0 0 0.1-0.1 0.1-0.1 0.2-0.6 0.7-0.7 1.3-0.7 -0.1-0.3-0.3-0.4-0.6-0.2 -0.2 0.1-0.3 0.2-0.5 0.3 -0.2 0.1-0.4 0.1-0.5 0l-0.2-0.5c0-0.1 0-0.1 0-0.2 0 0 0 0-0.1 0l-0.1-0.4c-0.2-0.7-0.6-1.4-0.6-1.5 -0.1-0.3-0.3-0.6-0.5-0.9 -0.3-0.4-0.7-0.8-1.3-0.8 -0.3 0-0.6 0.1-0.8 0.2 -0.3 0.1-0.6 0.2-0.9 0.3 -0.1 0-0.2 0.1-0.2 0.2 -0.3 1.1-0.5 2.3-0.8 3.5 -0.2 0.9-0.3 1.7-0.4 2.6 -0.1 1.2-0.3 2.4-0.4 3.5 0 0.2 0.2 0.4 0.3 0.3l2.1-0.3c0.1 0 0.2-0.1 0.2-0.3l0.1-1.4L23.2 56.7zM22.9 55.3l0 0 0 0 0 0L22.9 55.3zM23 54.6l0 0 0 0 0 0.1L23 54.6zM23.2 56.2l0-0.1 0 0 0 0.1L23.2 56.2zM23.2 54.7c0 0 0 0 0 0l-0.1 0c0 0 0 0 0 0l0 0c0 0 0.1 0 0.1 0C23.2 54.7 23.2 54.7 23.2 54.7zM23.1 54.4c0 0-0.1 0-0.1 0l-0.1-0.1c0 0 0.1 0 0.1 0l0.2 0c0 0 0 0.1-0.1 0.1C23.2 54.4 23.1 54.4 23.1 54.4zM23.2 54.3l-0.1 0 0-0.1 0.1 0 0 0c0 0 0 0 0 0.1l0 0c0 0 0 0 0 0L23.2 54.3zM23.3 55.1l0 0.1 -0.1 0 0-0.1L23.3 55.1zM23.3 55.5l0.1-0.1c0 0 0 0 0 0 0 0 0.1 0 0.1 0 0 0 0 0.1-0.1 0.1 0 0-0.1 0-0.1 0C23.3 55.6 23.3 55.5 23.3 55.5zM23.3 56.2l0.2 0 0 0 -0.1 0C23.4 56.2 23.4 56.2 23.3 56.2zM23.5 56.9l0-0.1 0.1 0 0 0.1L23.5 56.9zM23.5 55.9l0.1 0 0 0.1C23.6 56 23.5 55.9 23.5 55.9zM23.6 57.2l0-0.1c0 0 0 0 0.1 0l0.1 0L23.6 57.2zM24.8 56l-0.1 0 0 0 0.1 0L24.8 56zM24.3 55.8c0 0.1 0 0.1 0 0.1l0.1 0c0 0 0 0 0 0 -0.1 0-0.1 0-0.1 0 0 0 0 0-0.1 0 -0.1 0-0.1-0.1-0.2-0.1l0.1-0.1C24.2 55.8 24.3 55.8 24.3 55.8zM24.2 54.9l0.1 0 0 0 -0.1 0L24.2 54.9zM23.9 54c0 0-0.1 0.1-0.1 0.1 0 0 0 0.1-0.1 0.1 0.1 0 0.1 0.1 0.2 0.1 0 0 0.1 0 0.1 0.1 0 0 0 0-0.1 0l-0.2 0c-0.1-0.1-0.2-0.2-0.2-0.2 0 0 0 0 0.1-0.2l0.1 0C23.8 54 23.9 54 23.9 54zM23.7 54.7c0 0 0 0 0 0 0 0 0 0 0 0 0 0 0 0 0 0C23.7 54.7 23.7 54.7 23.7 54.7zM23.8 55.8l-0.1 0 0 0 0.1 0L23.8 55.8zM23.8 57l0-0.1c0.1 0 0.1 0 0.1 0L23.8 57zM23.9 57.6l0 0c0 0 0.1 0 0.1-0.1 0 0 0.1 0 0.1 0.1L23.9 57.6zM24 56.7l0.1 0c0 0 0 0 0 0 0 0 0 0 0 0 0 0 0 0 0 0C24 56.7 24 56.7 24 56.7zM24.3 58.2c0 0 0 0 0 0 0 0-0.2-0.1-0.2-0.2l0.1 0c0 0 0 0.1 0.1 0.1C24.3 58.2 24.3 58.2 24.3 58.2zM25 56.8c0 0 0 0.1 0.1 0.1 0 0.1-0.1 0.1-0.1 0.1 0 0 0 0 0 0.1 0 0 0.1 0.1 0.1 0.1 0.1 0.1 0.1 0.2 0.1 0.3 0 0.1 0.1 0.2 0.1 0.3 0 0 0 0-0.1 0 0 0-0.2-0.1-0.2-0.1l0 0c0 0 0 0 0 0 -0.1 0-0.1-0.1-0.1-0.1 0-0.1 0-0.1 0-0.1 0 0 0 0 0 0 0 0 0 0 0 0 0 0 0 0 0 0l0 0 0 0 0 0 0 0 0-0.2 -0.1 0c0 0 0 0-0.1 0 -0.1 0-0.1 0-0.2 0 0.1-0.1-0.1-0.1-0.2-0.2l0-0.1c0 0 0 0 0-0.1 0 0 0 0 0 0 0 0 0 0 0 0 0 0 0 0 0 0 0 0-0.1 0-0.1 0 0 0 0 0 0-0.1 0 0 0-0.1 0.1-0.1 0 0 0.1 0 0.1 0 0 0 0 0 0 0 0 0 0 0-0.1 0 0 0 0-0.1 0-0.1 -0.1 0-0.1 0-0.1 0 0 0 0 0 0 0 0-0.1 0.2-0.2 0.2-0.2 0 0 0.2 0 0.2 0l0 0.1 -0.1 0c-0.1 0-0.1 0-0.1 0.1l0 0.1 0 0c0 0 0.1-0.1 0.1-0.1l0.1-0.1c0.1 0.1 0.1 0.2 0.1 0.2 0 0 0 0 0 0.1 0 0 0 0.1 0.1 0.1C25 56.6 25 56.7 25 56.8zM23.6 53.8c0 0 0.1 0 0.1 0 -0.1 0.1-0.1 0.1-0.2 0.1l0-0.1L23.6 53.8zM23.6 53.5c0 0 0 0.1-0.1 0.1L23.6 53.5zM23.5 53.7l0 0c0 0 0 0 0 0 0 0 0 0-0.1 0l0 0C23.5 53.7 23.5 53.7 23.5 53.7zM23.6 54.8c0 0 0 0.1 0 0.1 0 0 0 0 0 0.1 0 0 0 0 0 0l-0.1 0 0-0.1c0-0.1-0.1-0.1-0.1-0.1 0 0 0 0 0 0C23.5 54.8 23.5 54.8 23.6 54.8zM23.5 54.2c0 0 0 0.1 0 0.2l-0.1-0.2 0 0c0 0 0 0 0 0C23.4 54.2 23.4 54.2 23.5 54.2zM23.4 53.8c0 0 0 0 0 0 0 0 0 0 0 0 0.1 0 0.1 0 0.1 0L23.4 53.8zM23.4 53l0 0 -0.1 0 0 0L23.4 53zM23.3 54c0 0 0 0 0 0l0 0.1 -0.1 0c0 0 0 0-0.1 0 0 0 0-0.1 0.1-0.1C23.3 54 23.3 54 23.3 54zM23.2 52.2l-0.1 0 0 0c0 0 0 0 0 0C23.2 52.2 23.2 52.2 23.2 52.2zM23.1 52l0 0 -0.1 0 0 0L23.1 52zM23.1 53c0 0 0 0 0 0l0 0 -0.1 0 0-0.1L23.1 53zM23 53.8c0.1 0 0.2 0 0.2 0.1l0 0 0 0 -0.1 0c-0.1 0 0-0.1 0-0.1l-0.1 0C22.9 53.8 22.9 53.8 23 53.8zM23 55l0 0.1 0 0 0-0.1L23 55zM22.5 55.4l0 0 0.1 0 0 0L22.5 55.4zM22.5 50.6c0 0-0.1 0-0.1 0 0 0 0-0.1 0-0.1 0 0 0.1 0 0.1 0 0 0 0 0 0 0 0 0 0 0 0 0C22.5 50.6 22.5 50.6 22.5 50.6zM22.5 53.8c0 0 0 0 0.1 0 0 0 0 0 0 0l-0.1 0L22.5 53.8zM22.6 56.4l0 0 0 0 0 0L22.6 56.4zM22.6 54.2l0 0 0.1 0 0 0L22.6 54.2zM22.9 55.6l0 0 -0.1 0c0 0 0.1-0.1 0.1-0.1C22.9 55.5 22.9 55.5 22.9 55.6zM22.8 52.5l0 0 0 0 0 0L22.8 52.5zM22.7 51c0 0 0.1 0 0.1-0.1 0 0 0.1 0 0.1 0.1 0 0 0 0 0 0.1l-0.1 0c0 0 0 0 0 0C22.7 51 22.7 51 22.7 51zM22.8 53.2c0 0 0 0.1-0.1 0L22.8 53.2zM22.4 50.2c0 0 0.1 0 0.1-0.1l0 0c0 0 0 0.1 0.1 0.1 0 0 0 0-0.1 0l-0.2 0 0 0C22.4 50.2 22.4 50.2 22.4 50.2zM22.3 50c0 0 0 0 0 0 0 0 0 0.1 0 0.1l-0.1 0c0 0 0 0 0 0l0-0.1L22.3 50zM22.2 50.1l0 0 0 0 0 0L22.2 50.1zM22.1 49.7l0 0.1 0 0 0-0.1L22.1 49.7zM22 50c0 0.1 0 0.1 0 0.1l-0.1 0 0-0.1C22 50 22 50 22 50zM22 53.4c0.1 0.2 0.2 0.4 0.2 0.7l0.2 0.7 -1.1 0.2 0.3-2.4C21.8 52.8 21.9 53.1 22 53.4zM21.4 52.7l0-0.1 0 0 0 0.1L21.4 52.7zM21.5 50.9c0 0 0 0 0.1 0 0 0 0 0 0 0.1 0 0 0 0-0.1 0l-0.1 0 0-0.1L21.5 50.9zM21.5 52.3c0 0 0 0 0 0 0 0 0 0 0 0l0 0.1c-0.1 0.1-0.1 0.1-0.2-0.1C21.4 52.3 21.4 52.3 21.5 52.3zM21.3 50.8l0 0 0 0 0 0L21.3 50.8zM20.8 52l0.1 0c0 0 0 0-0.1 0 0 0 0 0 0 0l0 0C20.8 52.1 20.8 52 20.8 52zM20.3 49.7l0 0.1 -0.1 0L20.3 49.7 20.3 49.7zM19.9 57.5c0 0 0 0 0 0 0.1 0 0.1 0 0.1 0l0 0.1 0 0 -0.1 0 0-0.1C19.9 57.5 19.9 57.5 19.9 57.5zM19.7 57.1l0 0 0 0C19.7 57.1 19.7 57.1 19.7 57.1zM19.7 52.1c0 0 0.1-0.1 0.1-0.1 0 0.1 0 0.2 0 0.2C19.8 52.3 19.7 52.2 19.7 52.1zM19.9 52.5l0 0.2 -0.1 0 0-0.2L19.9 52.5zM19.9 58.2c0 0-0.1 0-0.1 0 0 0 0-0.1 0.1-0.1 0 0 0.1 0 0.1 0L19.9 58.2zM20 57.8c0 0 0 0 0 0 -0.1 0-0.1-0.1-0.1-0.1 0.1 0 0.2-0.1 0.2-0.2 0 0 0 0 0.1 0 0 0 0 0 0 0l0 0.1 -0.1 0C20 57.8 20 57.8 20 57.8zM20.2 58.2l-0.1 0c0 0 0 0 0.1-0.1 0 0 0.1 0 0.1 0.1C20.3 58.1 20.2 58.2 20.2 58.2zM20.3 57.2c0 0 0 0 0 0 0 0 0 0 0 0 0 0 0-0.1 0-0.1C20.3 57.2 20.3 57.2 20.3 57.2zM20.4 50.3l0 0c0 0.1 0 0.1 0 0.2l0-0.2C20.4 50.3 20.4 50.3 20.4 50.3zM20.4 54.6l0.1 0 0 0.1c0 0 0 0.1 0 0.1 0 0 0 0-0.1-0.1C20.4 54.7 20.4 54.6 20.4 54.6zM20.6 58c0 0-0.1 0-0.1 0 0 0 0 0-0.1 0 0 0 0 0 0.1 0l0 0c0 0 0 0 0 0l0 0C20.6 57.9 20.6 58 20.6 58zM20.7 56.9c0 0 0 0 0 0 -0.1 0-0.2-0.1-0.2-0.1 0 0 0-0.1 0.1-0.1 0 0 0.2 0 0.2 0 0 0 0 0.1 0 0.1 0 0 0 0 0 0.1L20.7 56.9zM20.8 55.3c0 0 0 0-0.1 0 0 0 0 0 0-0.1 0-0.1 0-0.1 0-0.2 0-0.1 0-0.1 0.1-0.2 0-0.1 0-0.1 0-0.1 0-0.1 0-0.1 0.1-0.3 0.1-0.1 0.1-0.2 0.1-0.3 0 0 0-0.1 0-0.2 0-0.2 0.1-0.4 0-0.3 0-0.1 0-0.1 0-0.1 0 0 0 0 0-0.1 0 0 0 0 0-0.1 0-0.1 0-0.2 0-0.3 0 0 0 0 0.1-0.1 0 0 0-0.1 0.1-0.1l0.1 0c-0.1 0.2-0.1 0.3-0.1 0.3 0 0 0 0.1 0 0.1 0 0-0.1 0.2-0.1 0.2l0 0.2c-0.1 0.2-0.1 0.7-0.1 0.7l0 0.2c0 0.1-0.1 0.1-0.1 0.1 0 0.1-0.1 0.2-0.1 0.2 0 0.1 0 0.2 0 0.3C20.9 55.3 20.8 55.3 20.8 55.3zM20.9 56.5l0-0.1 0.2 0 0 0.1L20.9 56.5z" class="a"/><path d="M25.9 48.5l0.3 3c0.1 1.5 0.3 2.8 0.5 4.2 0.1 0.7 0.2 1.4 0.3 2.1 0 0.2 0.2 0.3 0.3 0.3l0.2 0c0.2 0.1 0.4 0.2 0.7 0.2 -0.1-0.1-0.2-0.2-0.3-0.3l1.4-0.2c0.2 0 0.3-0.1 0.3-0.3l-0.3-1.9c0.1 0.1 0.2 0.2 0.3 0.3 0.1-0.2 0.1-0.3 0.1-0.4 0.2 0 0.3 0.1 0.6 0.1 -0.4-0.7-0.7-0.9-1-0.8l-0.4-2.4 0.4 0.7c0 0.1-0.1 0.2-0.1 0.3 0.1-0.1 0.1-0.1 0.2-0.2l0.3 0.5c0 0 0 0 0 0 0 0 0.1 0 0.1 0l0 0 0.1 0c0 0.1-0.1 0.1-0.2 0.1l1.6 2.8 0 0 0 0 0 0 0.3 0.6c0.1 0.1 0.2 0.2 0.3 0.1l1.9-0.4c0.2 0 0.3-0.1 0.2-0.3 -0.2-1.1-0.4-2.2-0.5-3.2l-0.1 0 0 0 0 0 0.1 0 0 0c0 0 0 0 0 0l-0.1 0c-0.1 0-0.1 0-0.1 0 0 0 0 0-0.1 0l0 0 0 0 0 0c0.1 0 0.2 0 0.2 0 0 0 0.1 0 0.1 0l0.1 0c0-0.2-0.1-0.4-0.1-0.6 0-0.2-0.1-0.4-0.1-0.6 -0.1-0.9-0.2-1.7-0.3-2.6 0.1 0 0.1 0 0.2 0 -0.4-0.2 0-0.4 0-0.5 -0.1 0-0.1 0-0.2 0.1 0-0.5-0.1-0.9-0.1-1.4 0-0.2-0.2-0.3-0.3-0.3l-1.1 0.2c0 0 0.1-0.1 0.1-0.2 -0.2-0.2-0.3-0.4-0.5-0.1 -0.2 0.4-0.5 0.5-1 0.3 0.1 0.3 0.3 0.5 0.4 0.8 0 0.1 0 0.2 0 0.3 0.1-0.1 0.2-0.1 0.2-0.1l0.4 3.2 -1.7-2.9 0 0c-0.3-0.5-0.8-0.9-1.5-0.7l-1.4 0.3C26 48.2 25.9 48.3 25.9 48.5zM28.7 56.3l0-0.1 0.1 0 0 0.1L28.7 56.3zM27.8 54c0 0 0.1 0 0.1 0l0 0c0 0 0 0 0.1 0.1l-0.3 0L27.8 54zM28.3 50.8l0 0c0 0 0 0 0 0 0 0 0.1 0 0.1 0C28.3 50.8 28.3 50.8 28.3 50.8zM28.3 54.4l-0.1 0 0-0.1 0.1 0L28.3 54.4zM28.6 52.5l0 0.1 -0.1 0 0-0.1L28.6 52.5zM28.3 52.3l0-0.1 0.1 0 0 0.1L28.3 52.3zM28.4 51.8l0-0.1 0.1 0 0 0.1L28.4 51.8zM28.3 50.7c0 0 0 0 0 0s0 0 0 0c0 0 0-0.1 0-0.1C28.2 50.6 28.2 50.7 28.3 50.7zM28.2 52.3c0 0.1-0.1 0.1-0.1 0L28.2 52.3zM28.1 52.9l0 0.1 -0.1 0 0-0.1L28.1 52.9zM28.1 53.3l-0.1 0c0 0 0-0.1 0.1-0.1L28.1 53.3zM28.1 53.9l-0.1 0.1 0-0.1 0.1-0.1L28.1 53.9zM27.9 52.9l0-0.1c0.1 0 0.2 0 0.1 0.1L27.9 52.9zM27.8 52.7l0-0.1c0 0 0.1-0.1 0.1-0.1l0 0c0 0 0 0.1 0 0.1L27.8 52.7zM27.8 50.9c0 0 0.1 0 0.1 0C27.9 51 27.8 51 27.8 50.9zM27.8 51.7l0 0.1 -0.1 0 0-0.1L27.8 51.7zM27.8 53.3l0 0.1 -0.1 0 0-0.1L27.8 53.3zM28.2 55l-0.1 0c0 0 0 0 0 0 0 0 0 0 0.1 0l0 0C28.2 54.9 28.2 54.9 28.2 55zM28.3 54.5l0.1 0 0 0.1 -0.1 0L28.3 54.5zM28.3 55.9l0-0.1 0.1 0 0 0.1L28.3 55.9zM28.4 53.2l0.1 0 0 0.1 -0.1 0L28.4 53.2zM28.5 56l0-0.1c0.1 0 0.1 0 0.1 0C28.6 55.9 28.5 56 28.5 56zM28.6 52.2c0 0-0.1-0.1-0.1-0.1C28.6 52.1 28.7 52.1 28.6 52.2zM29.6 52.6l0 0 0.1 0 0 0L29.6 52.6zM29.6 52.2c0 0 0 0 0 0l0 0c0 0 0 0 0 0l0 0 0 0C29.6 52.2 29.6 52.2 29.6 52.2zM30 53.9c0 0 0 0 0 0 0 0 0.1 0 0.1 0.1 0 0-0.1 0-0.1 0C30 53.9 30 53.9 30 53.9zM30.1 54.3c0 0 0-0.1 0-0.1l0.1 0C30.1 54.3 30.1 54.3 30.1 54.3zM30.2 54.7l0-0.1c0.1 0 0.1 0 0.1 0C30.3 54.7 30.2 54.7 30.2 54.7zM30.3 54.5l0-0.1 0.1 0 0 0L30.3 54.5zM30.3 54.2l0 0 0.1 0 0 0.1L30.3 54.2zM31 54.3c0 0.1-0.1 0.1-0.1 0.1 0 0 0 0.1-0.1 0.1 0 0 0 0-0.1-0.1 0 0-0.1-0.1-0.1-0.1l0 0c0 0 0 0 0 0l0 0c0 0 0 0 0 0 0 0 0 0 0 0l0 0c0 0 0 0 0 0l0 0C30.9 54.3 30.9 54.3 31 54.3zM30.9 52.3l0 0 0 0 0 0.1L30.9 52.3zM30.7 54.8l-0.1-0.1 0.1 0c0.1 0 0.1 0 0.1 0L30.7 54.8zM30.9 54.6l0.1 0c0.1 0 0.1 0 0.1 0.1l0 0c-0.1 0-0.1 0-0.2 0L30.9 54.6zM31.1 54.9l0.1 0 0.1 0.2 -0.1 0L31.1 54.9zM31.1 55.3l-0.1-0.1C31.1 55.2 31.1 55.2 31.1 55.3zM31.3 56.3c0 0 0 0.1-0.1 0.1 0 0 0-0.1 0-0.1 0 0 0.1 0 0.1 0l0 0 0.1-0.1c0 0 0 0.1 0 0.1C31.4 56.2 31.4 56.2 31.3 56.3zM31.6 55.8c0 0 0 0 0 0 0 0 0 0 0 0l0.1-0.1 0.1 0.1L31.6 55.8zM32.1 55.3l0.1 0 -0.2 0.2 0-0.1C32.1 55.4 32.1 55.4 32.1 55.3zM32.2 55.8c0 0 0 0.1-0.1 0.1l0 0 0 0c0 0 0-0.1 0.1-0.1l0 0L32.2 55.8zM31.9 55.6l0.1 0 0 0.1 -0.1 0L31.9 55.6zM31.9 55.9l0 0c0 0 0 0 0 0 0 0 0.1 0 0.1 0l0 0c0 0-0.1 0-0.1 0l0 0.1 0 0 0 0L31.9 55.9zM31.9 55.8c0 0 0 0-0.1 0 0 0 0 0 0-0.1 0 0 0 0 0.1 0L31.9 55.8zM31.8 54.8c0 0-0.1 0-0.1 0l0.1-0.1C31.8 54.8 31.8 54.8 31.8 54.8zM31.7 52.5l0 0 0 0 0 0L31.7 52.5zM31.6 53.7c0 0 0 0.1 0 0.1 0 0 0 0-0.1-0.1l0 0L31.6 53.7zM31.5 53.1l0.1 0 0 0.1 -0.1 0L31.5 53.1zM31.4 55.1l0 0c0 0 0.1 0 0.1 0 0 0 0 0 0.1 0l0 0c0 0 0 0 0 0l0 0.1c0 0 0.1 0.1 0.2 0.1 -0.1 0-0.1 0.1-0.2 0 0 0-0.1 0-0.1-0.1 0 0-0.1 0-0.1 0 0 0-0.1 0-0.1 0L31.4 55.1zM31.5 55.4c0 0 0 0 0 0l0 0c0 0 0 0 0 0 0 0 0-0.1 0-0.1 0 0 0.1 0 0.1 0l0.1 0 0.1 0.1 0 0 0 0c0 0 0 0 0 0 0 0-0.1 0-0.1 0.1C31.4 55.4 31.5 55.4 31.5 55.4zM31.1 55.6c0 0 0 0-0.1 0l0 0 0 0c0 0 0 0 0 0 0 0 0.1-0.1 0.1-0.1 0.1 0 0.1 0 0.1 0 0 0 0.1 0 0.2-0.1L31.1 55.6zM31.3 54.4l0.1 0.1 -0.1 0 -0.1-0.1L31.3 54.4zM31.2 54.4l-0.1 0 -0.1 0c0 0 0 0 0 0.1l0 0c0 0 0 0-0.1 0 0 0 0 0 0.1 0l0.1 0c0 0 0 0 0 0 0 0 0 0 0 0l0 0 0.1 0L31.2 54.4zM30.7 53.8l0 0.1 -0.1 0 0-0.1L30.7 53.8zM30.7 55.2c0 0 0 0 0 0 0 0 0 0 0 0 0 0-0.1 0-0.1 0l0.1-0.1C30.6 55.1 30.6 55.2 30.7 55.2zM30.6 55.1l-0.1 0 0-0.1 0.1 0L30.6 55.1zM30.6 54.8l-0.1 0 0-0.1 0.1 0L30.6 54.8zM30.5 53.4l-0.1 0 0 0 0.1 0L30.5 53.4zM30.5 53.3l0 0c0 0 0 0 0 0 -0.1 0-0.1 0-0.1-0.1C30.3 53.3 30.4 53.3 30.5 53.3zM30.2 54l0 0c0 0 0 0 0 0L30.1 54c0 0 0 0 0 0l0-0.1c0 0 0.1 0 0.1 0L30.2 54zM30.2 53.4l-0.2 0.1 0 0 0.1-0.1L30.2 53.4zM30.1 53.2l0 0.1c-0.1 0-0.1 0-0.1-0.1L30.1 53.2zM29.9 53.4h0.1L30 53.5l-0.1 0L29.9 53.4zM29.8 53.6c0 0 0 0 0 0s0 0-0.1 0c0 0 0 0 0 0 0 0 0 0 0 0 0.1 0 0.1 0 0.1-0.1 0 0 0.1 0 0.1 0.1L29.8 53.6zM29.8 52.8l0 0c0 0 0 0 0 0 0 0 0 0 0 0s0 0 0 0l0 0c0 0 0 0 0 0 0 0.1 0 0.1 0.1 0.2L29.8 52.8zM29.8 52.3l0 0.1 -0.1 0 0-0.1L29.8 52.3zM29.6 51.9l0.1 0 -0.2 0.2 0 0C29.6 52 29.6 52 29.6 51.9zM29.4 52.1l0 0.1 -0.1 0 0-0.1L29.4 52.1zM28.2 50.8l0 0 -0.1 0 0 0L28.2 50.8zM27.8 50.8l0 0 0.3 0 0 0c0 0-0.1 0.1-0.1 0.1 0 0 0 0 0 0 0 0 0 0-0.1 0l0 0 0 0 -0.1 0 0-0.1L27.8 50.8zM27.7 53.9l0 0.1c0 0-0.1 0-0.1 0.1C27.6 54 27.7 53.9 27.7 53.9zM27.6 50.7c0 0 0 0.1 0 0.1 0 0 0 0 0 0l0-0.1L27.6 50.7zM27.4 50c0 0 0 0 0 0.1l-0.1 0C27.3 50 27.4 50 27.4 50zM27.3 50.7l0 0 -0.1 0 0 0L27.3 50.7z" class="a"/><path d="M37.4 56.3c0.6-0.2 1.4-0.6 2-1.3 0.6-0.7 1.2-1.9 1.3-3.4 0.1-1.5-0.2-2.8-0.7-3.8 -0.5-1-1.5-1.7-2.8-1.6 -0.7 0.1-1.4 0.2-2.1 0.5l-1 0.4c0 0 0.1-0.1 0.1-0.1 0 0-0.1-0.1-0.1-0.1 -0.1 0.1-0.2 0.2-0.3 0.3l-0.1 0c-0.1 0.1-0.2 0.2-0.2 0.3 -0.1 0.1-0.1 0.1-0.2 0.2 -0.1 0.2-0.2 0.5-0.2 0.7 0 0 0 0.1 0 0.1 0 0 0.1 0.1 0.2 0 0.1 0 0.2-0.1 0.3-0.3l1 8c0 0.2 0.2 0.3 0.3 0.2l1.5-0.3C36.8 56.4 37.1 56.3 37.4 56.3zM34.3 50.5c0 0 0 0 0 0 0 0 0 0 0 0l-0.1-1.3c0 0.1 0.1 0.1 0.1 0.2 0 0 0 0.3 0 0.3 0 0 0 0.1 0 0.1 0 0.2 0 0.3 0 0.4l0 0.1C34.4 50.4 34.4 50.5 34.3 50.5zM34.4 47.4l0 0 0 0 0 0L34.4 47.4zM34.6 53.9l0 0c0 0 0 0 0 0l0 0C34.6 53.9 34.6 53.9 34.6 53.9zM34.7 51.8l-0.1 0 0-0.1c0.1 0 0.1 0 0.2 0.1C34.7 51.8 34.7 51.8 34.7 51.8zM34.7 47.5l0 0c0 0 0 0 0 0l0 0 0 0c0 0 0 0 0 0 0 0 0.1 0 0.2 0C34.9 47.4 34.8 47.5 34.7 47.5zM37.7 55.5l0 0c0 0 0 0 0 0 0 0 0 0 0 0 0 0 0 0 0 0C37.8 55.5 37.8 55.5 37.7 55.5zM38.5 50.1c0 0 0 0-0.1 0 0 0 0 0 0 0L38.5 50c0.1 0 0.1 0 0.2 0.1 0 0 0 0.1 0 0.1 0 0 0 0 0 0l0.1 0c0 0 0 0 0 0.1l0 0c0 0 0 0-0.1 0 -0.1 0-0.2-0.1-0.2-0.1 0 0 0 0 0 0 0 0 0 0 0 0C38.6 50.1 38.6 50.1 38.5 50.1zM38.8 49.7c0 0 0 0 0-0.1 0 0 0 0 0.1 0 0 0 0 0 0 0 0 0 0 0 0 0l0 0.1C38.9 49.8 38.8 49.8 38.8 49.7zM38.8 52.5c0 0 0 0-0.1 0l0-0.1c0 0 0 0 0.1 0C38.8 52.5 38.8 52.5 38.8 52.5zM38.8 50.9c0 0 0 0 0 0l0 0 0.1 0c0 0 0 0 0 0 0 0 0 0 0 0.1S38.8 50.9 38.8 50.9zM38.9 52.4l0 0c0 0 0 0 0 0.1C38.9 52.5 38.9 52.4 38.9 52.4zM38.9 50.7c0 0 0 0 0-0.1l0.1 0c0 0 0 0 0.1 0 0 0 0 0 0 0l0 0.1c0 0 0 0 0 0l-0.1 0C39 50.7 38.9 50.7 38.9 50.7zM39 51.9l0 0 0 0c0 0 0 0 0 0 0 0 0 0 0 0l0.1 0C39.1 51.9 39 51.9 39 51.9zM39.2 50.7c0 0 0 0.1 0 0.1 0 0 0 0-0.1-0.1 0 0 0 0 0 0C39.2 50.8 39.2 50.7 39.2 50.7zM39.2 50.3c0 0 0.1 0 0.1 0 0 0 0 0 0 0l0 0 -0.1 0c0 0 0 0 0 0C39.2 50.3 39.2 50.3 39.2 50.3zM39.1 50.5l0 0 0 0 0 0L39.1 50.5zM39.1 51.1l0.1 0c0 0 0 0 0 0 0 0 0 0 0 0l0 0 0 0L39.2 51.1l0 0 0 0 0 0C39.1 51.1 39.1 51.1 39.1 51.1zM39.3 52.1c0 0-0.1 0-0.1 0 0 0 0-0.1 0-0.1 0 0 0 0 0.1 0 0 0 0.1 0 0.1 0C39.3 52.1 39.3 52.1 39.3 52.1zM39.2 51.7l0 0c0 0 0 0 0 0 0 0 0 0 0 0 0 0 0 0 0 0 0 0 0 0 0 0 0 0 0.1 0 0.1 0 0 0 0 0 0 0l0 0c0 0 0 0 0.1 0 0 0 0 0 0 0 0 0 0 0 0 0L39.2 51.7zM39.4 51.1c0 0-0.2 0-0.2 0 0 0 0 0 0-0.1 0 0 0 0 0-0.1l0.1 0 0 0c0 0 0 0 0.1 0l0 0L39.4 51.1zM39.3 49c0 0 0-0.1 0-0.1 0 0 0 0 0 0.1l0 0.1C39.3 49 39.3 49 39.3 49zM39.5 52.6c-0.1 0-0.1 0-0.1-0.1 0 0 0 0 0-0.1l0.1 0c0 0 0 0 0 0l0 0 0 0C39.6 52.5 39.6 52.6 39.5 52.6zM39.7 51.8l0-0.1 0 0 0 0.1L39.7 51.8zM39.8 52.9c0 0 0 0 0 0l0 0 0.1 0 0 0.1L39.8 52.9zM40 50.8c0 0 0 0 0.1 0 0 0-0.1 0-0.1 0L40 50.8zM39.8 49.6l0 0c0 0 0 0 0.1 0l0 0c0 0-0.1 0-0.1 0L39.8 49.6zM39.7 51.1l0 0c0.1 0 0.2 0 0.2 0.1 0 0 0 0-0.1 0.1 0 0-0.1 0-0.1 0 0 0 0 0-0.1 0l0-0.1C39.7 51.1 39.7 51.1 39.7 51.1zM39.7 51.4c0 0 0 0 0 0l0 0 0 0 0 0C39.7 51.4 39.7 51.4 39.7 51.4zM39.6 51.4c0 0 0 0 0 0 0 0 0 0 0 0 0 0 0 0 0 0.1 0 0 0 0 0 0.1l0 0c-0.1 0-0.1 0-0.1-0.1l0-0.2c0 0 0 0 0 0 0 0 0 0 0-0.1 0 0 0 0 0 0 0 0 0 0 0-0.1 0 0 0 0 0.1 0L39.5 51.2c0 0 0 0 0 0l0 0C39.6 51.2 39.6 51.3 39.6 51.4zM39.5 49.4c0 0 0.1 0 0.1 0l0 0.1c0 0 0 0 0 0 0 0-0.1 0-0.1 0 0 0 0 0 0 0C39.4 49.4 39.4 49.4 39.5 49.4zM39.3 48.7c0 0 0 0 0.1 0.1 0 0 0 0.1-0.1 0.1 0 0-0.1 0-0.1 0C39.3 48.8 39.3 48.7 39.3 48.7zM39.1 48.6l0 0c0 0 0 0 0 0l0.1 0c0 0 0.1 0 0.1 0L39.1 48.6zM38.8 48.1c0 0 0 0 0.1-0.1 0.1 0 0.1 0 0.2-0.1l0 0.1c0 0 0 0 0 0.1 0 0.1-0.1 0.1-0.2 0.1 0 0-0.1 0-0.1-0.1L38.8 48.1zM38.6 48.9c0 0 0 0 0.1 0l0.1 0c0 0 0 0 0 0l0 0c0 0 0 0 0.1 0s0 0 0 0c0 0.1-0.1 0.1-0.1 0.1 0-0.1-0.1-0.1-0.2-0.1C38.6 49 38.6 48.9 38.6 48.9zM38.4 48.2l0 0.1 0 0 0-0.1L38.4 48.2zM38.4 49l0.1 0 0 0c0 0 0 0.1-0.1 0.1l-0.1 0L38.4 49.1c0 0 0 0 0 0C38.4 49 38.4 49 38.4 49zM38.3 49.7c0 0 0.1 0 0.1-0.1 0 0 0 0 0 0 0 0 0 0 0 0l0 0.1 0 0c-0.1 0-0.1 0-0.1-0.1 0 0 0-0.1 0-0.1C38.3 49.7 38.3 49.7 38.3 49.7zM38.2 48.8c0 0 0 0 0 0 0 0 0 0 0 0 0 0-0.1 0-0.1 0C38.1 48.8 38.1 48.8 38.2 48.8zM37.4 46.6c0 0 0 0 0 0 0 0 0 0 0.1 0l0 0c0 0 0 0 0 0l0 0 -0.1 0c0 0-0.1 0-0.1 0C37.3 46.6 37.3 46.6 37.4 46.6zM37.3 46.8l0.1 0c0 0 0 0 0 0.1 0 0 0 0 0 0.1 0 0-0.1 0-0.1 0.1 0 0-0.1 0-0.1-0.1C37.3 46.9 37.3 46.8 37.3 46.8zM36.6 47.5l0.2 0 0 0.1 -0.2 0L36.6 47.5zM35 55.1l0.1 0 0 0 -0.1 0L35 55.1zM35.1 55.4c0 0 0 0 0 0 0 0 0.1 0 0.1 0l0.1 0c0 0 0 0.1 0 0.1 0 0 0 0.1 0 0.1 0 0 0 0 0 0.1 0 0-0.1 0.1-0.1 0.1 0 0-0.1 0-0.1-0.1 0-0.1-0.1-0.1-0.1-0.2C35.1 55.5 35.1 55.4 35.1 55.4zM35.4 56c0 0 0 0-0.1 0 0 0-0.1 0-0.1 0 0 0 0.1 0 0.1 0 0 0 0.1 0 0.1 0 0 0 0.1 0 0.1 0C35.4 56 35.4 56 35.4 56zM35.5 55.1c0 0-0.1 0-0.2 0 0 0 0 0 0 0l0 0c0-0.1 0-0.1 0.1-0.1 0 0 0.1 0 0.1 0.1C35.6 55.1 35.6 55.1 35.5 55.1zM35.6 47.2c0 0 0-0.1 0-0.1l0.1 0c0 0.1 0 0.1 0 0.1l0 0C35.7 47.3 35.6 47.3 35.6 47.2zM36 52.9c0 0 0 0-0.1 0 0 0 0 0 0-0.1 0 0 0 0 0 0l0.1 0c0 0 0.1 0 0.1 0.1C36 52.9 36 52.9 36 52.9zM36.3 54.8c0 0 0 0-0.1 0l0-0.1C36.3 54.7 36.4 54.7 36.3 54.8zM36.4 53.2l0-0.1c0 0 0-0.1 0.1-0.1l0.1 0 -0.4-3.4c0 0-0.1 0-0.1 0 0 0-0.1-0.1-0.1-0.2 0.1 0 0.1-0.1 0.2-0.1l0 0 0-0.3c0.2-0.1 0.4-0.2 0.7-0.2 0.5-0.2 0.8-0.2 1.1 0.2 0.2 0.4 0.4 0.8 0.5 1.4 0 0 0 0 0-0.1 0.1 0 0.2 0 0.2 0.1 0 0.1-0.1 0.1-0.1 0.1 0 0-0.1 0-0.1 0 0 0 0 0 0 0 0 0.3 0 0.7 0 1.1 0 0.3-0.1 0.6-0.2 1 -0.2 0.7-0.6 1.2-1.4 1.5l-0.1-0.6 0 0c-0.1 0-0.1 0-0.2-0.1C36.4 53.2 36.4 53.2 36.4 53.2z" class="a"/><polygon points="13.4 63.8 13.4 63.8 13.4 63.8 " class="a"/><path d="M15.7 71.9c0.3 0.6 0.9 0.7 1.3 0.3 0.3-0.2 0.5-0.7 0.6-1 0 0 0 0 0.5-1.7l0.3 3.1c0 0.1 0.2 0.3 0.3 0.3l2.1-0.3c0.2 0 0.3-0.2 0.2-0.3l-1.5-8.1c-0.1-0.4-0.3-0.8-0.6-1 -0.3-0.2-0.6-0.2-1-0.2l-0.6 0.1c-0.1 0-0.1 0-0.1 0l0 0c0 0 0 0 0 0 0 0 0 0.1-0.1 0.1l0 0L17.1 63.2c0 0 0 0 0 0.1L17 63.4l0.2 0c0.4-0.1 0.9-0.2 1.3-0.3l0 0.1c-0.6 0.1-1 0.2-1.5 0.3l-1 4.4 -1.6-3.4 0 0c-0.1-0.2-0.2-0.3-0.4-0.4 -0.4 0.1-0.7 0.1-1 0.1l-0.1 0c0 0-0.1 0-0.1 0l-0.1 0c0 0 0 0-0.1 0 -0.2 0.1-0.4 0.1-0.5 0.1 -0.1 0-0.3 0-0.7 0.1l0-0.2c0.1 0.1 0.1 0.1 0.1 0.1 0 0 0 0 0 0 0 0 0 0 0-0.1 0 0 0.1 0 0.2 0 0.1-0.1 0.2-0.1 0.4-0.1 0.1 0 0.2 0 0.2 0 0.1 0 0.1 0 0.2-0.1 0.3 0 0.5 0 0.5 0 0.2 0 0.3 0 0.4 0 0.1 0 0.2 0 0.3-0.1 -0.2-0.1-0.3-0.1-0.5-0.2 0 0 0.1 0 0.1 0 0 0 0 0 0 0.1l-0.1 0c0 0 0 0 0 0 0 0 0 0 0 0 0 0 0 0 0.1 0 -0.1 0-0.3 0-0.5 0l-0.1 0 0.1 0c0 0 0 0 0 0s0 0 0 0l-1.1 0.2c-0.2 0-0.3 0.1-0.2 0.3l0.2 1.5c0 0.1 0 0.1 0 0.2l0.4 2.9 0.6 4.7c0 0.2 0.2 0.3 0.4 0.2l2-0.4 -0.7 0.1c0-0.1 0.1-0.1 0.1-0.1 0 0 0 0 0.1 0 0 0 0.1 0 0.1 0l0.4-0.1c0 0 0.1 0 0.1 0 0.1-0.1 0.1-0.2 0.1-0.3l-0.2-1.5 0 0 0-0.1c0 0 0 0 0 0l-0.2-1.4 0.1 0.2L15.7 71.9zM20.1 70.7c0 0 0 0 0 0l-0.1 0C20 70.7 20.1 70.7 20.1 70.7zM19.1 70.6c0 0 0 0 0.1 0 0 0 0 0 0 0l0 0.1c0 0 0 0 0 0 0 0-0.1 0-0.1 0 0 0 0 0 0 0C19 70.6 19 70.6 19.1 70.6zM17.4 63.3c0 0 0 0 0 0 0 0 0 0 0 0 0-0.1 0.2-0.1 0.2-0.1l0 0.1L17.4 63.3zM18 63.1c0 0 0 0 0-0.1 0 0 0.1 0 0.1 0 0.1 0 0.3 0 0.3 0L18 63.1zM18.6 67.6c0 0 0 0 0 0l0 0 0 0 0 0c0 0 0.1 0 0.1 0L18.6 67.6zM18.7 65.8l-0.1 0c0 0-0.1 0-0.1 0 0 0 0 0 0 0l0 0C18.7 65.8 18.7 65.8 18.7 65.8zM18.5 65.1c0 0 0 0 0.1 0l0 0.1 -0.1 0c0 0-0.1 0-0.1-0.1L18.5 65.1zM18.3 68.2l0 0c0 0 0 0 0 0l0 0c0 0 0 0 0 0 0 0 0-0.1 0.1-0.1L18.3 68.2zM18.2 65.3l0.1 0 0 0.1c-0.1 0-0.1 0.1-0.1 0.1 0 0-0.1 0-0.1 0C18.1 65.4 18.2 65.3 18.2 65.3zM16.2 69.3l0-0.1 0.1 0 0 0.1L16.2 69.3zM16.9 72.2l0-0.1 0 0 0 0.1L16.9 72.2zM16.8 72c0 0 0 0 0 0l0 0.1L16.8 72zM17.1 71.6c0 0-0.1 0-0.1-0.1 0 0 0-0.1 0-0.1 0 0 0 0 0.1 0l0.1 0.1L17.1 71.6zM17.3 69.9l0 0 0 0c0 0 0 0 0 0 0 0 0 0 0 0.1 0 0 0 0-0.1 0.1 -0.1 0-0.1 0-0.1 0 0 0 0 0 0-0.1 0-0.1 0-0.2 0.1-0.2 0.1 0 0.1 0.1 0.1 0.1C17.3 69.9 17.3 69.9 17.3 69.9zM17.3 69l0 0 -0.1 0 0 0L17.3 69zM17 68.6c0.1 0 0.1 0 0.1 0.1 0 0 0 0 0 0 0 0 0 0 0 0l0 0c0 0-0.1 0-0.1 0 0 0-0.1 0-0.1 0 0 0 0 0 0 0C17 68.6 17 68.6 17 68.6zM16.8 69.5l0.1 0 0 0 0 0c0 0 0 0 0 0 0 0 0 0 0 0.1l-0.1 0.1c0 0-0.1 0-0.1-0.1C16.8 69.6 16.8 69.6 16.8 69.5zM16.8 69.9c0 0 0.1 0 0.2 0.1 -0.1 0-0.2 0-0.2 0l-0.1 0 -0.1 0C16.6 70 16.7 69.9 16.8 69.9zM16.7 70.2l0 0c0 0 0 0-0.1 0l0 0 0-0.1C16.6 70.2 16.7 70.2 16.7 70.2zM16.6 71.5c0 0 0.1 0 0.2 0l0 0.1 0 0c0 0-0.1 0-0.1 0 0 0-0.1 0-0.1 0 -0.1 0-0.1 0-0.2 0 0 0 0-0.1 0.1-0.1C16.5 71.5 16.6 71.5 16.6 71.5zM16.5 70.4c0 0 0 0 0 0 0 0 0 0 0 0L16.5 70.4zM16.4 69.7l0 0 -0.1 0 -0.1-0.1c0.1 0 0.1 0 0.1-0.1 0 0 0 0 0 0l0.1 0L16.4 69.7zM16.3 68.9l0.2-0.1c0 0 0.1 0.1 0 0.1l0 0c0 0 0 0-0.1 0 0 0-0.1 0-0.1 0l0 0C16.3 68.9 16.3 68.9 16.3 68.9zM16.2 68.2c0 0 0 0 0 0l0 0c0 0 0 0 0 0L16.2 68.3l-0.1 0c0 0 0 0 0 0 0 0 0 0 0-0.1L16.2 68.2zM16 68.6c0 0 0 0.1 0 0.1l0 0 0 0 -0.1 0L16 68.6zM11.6 64.7l0 0 -0.1 0L11.6 64.7zM11.6 65l0-0.1 0 0.1L11.6 65zM12.5 69.7l0 0 0-0.1 0 0L12.5 69.7zM12.3 68.5l0.1 0 0 0L12.3 68.5zM12.4 69.3l0 0 0 0.2 0 0L12.4 69.3zM12.4 70c0 0 0 0 0-0.1l0 0.1C12.4 70 12.4 70 12.4 70zM12.5 70l0.1 0.5c-0.1 0-0.1-0.1-0.1-0.2 0 0 0-0.1 0-0.1 0 0 0-0.1 0-0.1C12.5 70.1 12.5 70 12.5 70zM13 73.7c0 0 0-0.1-0.1-0.2 0 0 0-0.1 0-0.2 0-0.1 0-0.1 0-0.2 0-0.1 0-0.3 0-0.4 0-0.1-0.1-0.2-0.1-0.3 0-0.1-0.1-0.2-0.1-0.3 0-0.1-0.1-0.2-0.1-0.4l-0.1-0.6c0 0 0 0 0 0s0 0 0.1-0.1c0-0.1 0.1-0.1 0.1-0.2l-0.1-0.4 0.1 0 0.1 1 0.1 0.9 0.3 1.1L13 73.7zM14.1 72.8c0 0-0.1 0-0.2 0 0 0 0.1-0.1 0.1-0.1 0 0 0 0 0.1 0.1l0 0C14.1 72.7 14.1 72.7 14.1 72.8zM14.1 65.8l0.1 0 0 0 -0.1 0L14.1 65.8zM14.3 72.3c0 0-0.1 0-0.1 0l0 0c0 0 0 0 0 0l0.1 0 0 0 0 0C14.3 72.3 14.3 72.3 14.3 72.3zM14.4 66.3c0 0 0 0-0.1 0l0 0 0 0c0 0 0 0 0 0 0 0 0 0 0.1 0L14.4 66.3zM14.5 65.7l-0.1 0c0 0 0-0.1 0.1-0.1 0 0 0 0 0-0.1l0 0.1C14.5 65.6 14.5 65.6 14.5 65.7zM15 72.9c0 0 0 0 0 0 0 0 0 0 0 0 0 0 0 0.1-0.1 0.1l0 0.1 0 0c0 0 0 0 0 0l0 0 0 0c-0.1 0-0.1 0-0.1 0 0 0 0-0.1-0.1-0.1l0 0C14.9 72.9 15 72.9 15 72.9zM14.8 71.9c0.1 0 0.1 0 0.1 0 0 0 0 0.1 0 0.1 -0.1 0-0.1 0-0.1-0.1C14.7 72 14.8 72 14.8 71.9z" class="a"/><path d="M21.9 72.3l2.1-0.3c0.1 0 0.2-0.1 0.2-0.3l0.1-1.4 2.1-0.8 0.4 1.7c0 0.2 0.2 0.2 0.3 0.2l2.2-0.4c0.2 0 0.3-0.2 0.2-0.4l-2.1-5.8c-0.2-0.7-0.6-1.4-0.6-1.5 -0.1-0.3-0.3-0.6-0.5-0.9 -0.3-0.4-0.7-0.8-1.3-0.8 -0.3 0-0.6 0.1-0.8 0.2 -0.3 0.1-0.6 0.2-0.9 0.3 -0.1 0-0.2 0.1-0.2 0.2 -0.3 1.1-0.5 2.3-0.8 3.5 -0.2 0.9-0.3 1.7-0.4 2.6 -0.1 1.2-0.3 2.4-0.4 3.5C21.6 72.2 21.7 72.3 21.9 72.3zM26.2 68l0 0 0 0 0 0L26.2 68zM26.2 67.3l0 0 0 0 0 0.1L26.2 67.3zM26.4 69l0-0.1 0 0 0 0.1L26.4 69zM26.5 67.5c0 0 0 0 0 0l-0.1 0c0 0 0 0 0 0l0 0c0 0 0.1 0 0.1 0C26.5 67.4 26.5 67.4 26.5 67.5zM26.4 67.2c0 0-0.1 0-0.1 0l-0.1-0.1c0 0 0.1 0 0.1 0l0.2 0c0 0 0 0.1-0.1 0.1C26.4 67.2 26.4 67.2 26.4 67.2zM26.5 67l-0.1 0 0-0.1 0.1 0 0 0c0 0 0 0 0 0.1l0 0c0 0 0 0 0 0L26.5 67zM26.6 67.8l0 0.1 -0.1 0 0-0.1L26.6 67.8zM26.6 68.3l0.1-0.1c0 0 0 0 0 0 0 0 0.1 0 0.1 0 0 0 0 0.1-0.1 0.1 0 0-0.1 0-0.1 0C26.6 68.3 26.6 68.3 26.6 68.3zM26.6 69l0.2 0 0 0 -0.1 0C26.6 69 26.6 69 26.6 69zM26.7 69.7l0-0.1 0.1 0 0 0.1L26.7 69.7zM26.8 68.7l0.1 0 0 0.1C26.8 68.7 26.8 68.7 26.8 68.7zM26.9 69.9l0-0.1c0 0 0 0 0.1 0l0.1 0L26.9 69.9zM27 68.6l-0.1 0 0 0 0.1 0L27 68.6zM27 67.5c0 0 0 0 0 0 0 0 0 0 0 0 0 0 0.1 0 0.1 0l0 0C27 67.5 27 67.5 27 67.5zM27 69.7l0-0.1c0.1 0 0.1 0 0.1 0L27 69.7zM27.5 70.9c0 0 0 0 0 0 0 0-0.2-0.1-0.2-0.2l0.1 0c0 0 0 0.1 0.1 0.1C27.5 70.9 27.5 70.9 27.5 70.9zM28 68.7l0 0 -0.1 0 0 0L28 68.7zM28 68.8l0 0.1 -0.1 0c-0.1 0-0.1 0-0.1 0.1l0 0.1 0 0c0 0 0.1-0.1 0.1-0.1l0.1-0.1c0.1 0.1 0.1 0.2 0.1 0.2 0 0 0 0 0 0.1 0 0 0 0.1 0.1 0.1 0.1 0.1 0.1 0.2 0.1 0.3 0 0 0 0.1 0.1 0.1 0 0.1-0.1 0.1-0.1 0.1 0 0 0 0 0 0.1 0 0 0.1 0.1 0.1 0.1 0.1 0.1 0.1 0.3 0.1 0.3 0 0.1 0.1 0.2 0.1 0.3 0 0 0 0-0.1 0 0 0-0.2-0.1-0.2-0.1l0 0c0 0 0 0 0 0 -0.1 0-0.1-0.1-0.1-0.1 0-0.1 0-0.1 0-0.1 0 0 0 0 0 0 0 0 0 0 0 0 0 0 0 0 0 0l0 0 0 0 0 0 0 0 0-0.2 -0.1 0c0 0 0 0-0.1 0 -0.1 0-0.1 0-0.2 0 0.1-0.1-0.1-0.1-0.2-0.2l0-0.1c0 0 0 0 0-0.1 0 0 0 0 0 0s0 0 0 0c0 0 0 0 0 0 0 0-0.1 0-0.1 0 0 0 0 0 0-0.1 0 0 0-0.1 0.1-0.1 0 0 0.1 0 0.1 0 0 0 0 0 0 0 0 0 0 0-0.1 0 0 0 0-0.1 0-0.1 -0.1 0-0.1 0-0.1 0 0 0 0 0 0 0 0-0.1 0.2-0.2 0.2-0.2C27.8 68.8 27.9 68.8 28 68.8zM27.5 67.7l0 0 -0.1 0 0 0L27.5 67.7zM27.4 68.6c0 0 0.1 0 0.1-0.1 0 0.1 0 0.1 0 0.1l0.1 0c0 0 0 0 0 0 -0.1 0-0.1 0-0.1 0 0 0 0 0-0.1 0 -0.1 0-0.1-0.1-0.1-0.1L27.4 68.6zM27.4 69.4c0 0 0 0 0 0 0 0 0 0 0 0 0 0 0 0 0 0 0 0 0 0 0 0L27.4 69.4zM27.1 70.3l0 0c0 0 0.1 0 0.1-0.1 0 0 0.1 0 0.1 0.1L27.1 70.3zM27.1 66.8c0 0-0.1 0.1-0.1 0.1 0 0 0 0.1-0.1 0.1 0.1 0 0.1 0.1 0.2 0.1 0 0 0.1 0 0.1 0.1 0 0 0 0-0.1 0l-0.2 0c-0.1-0.1-0.2-0.2-0.2-0.2s0 0 0.1-0.2l0.1 0C27.1 66.7 27.1 66.7 27.1 66.8zM26.9 66.6c0 0 0.1 0 0.1 0 -0.1 0.1-0.1 0.1-0.2 0.1l0-0.1L26.9 66.6zM26.8 66.3c0 0 0 0.1-0.1 0.1L26.8 66.3zM26.8 66.4l0 0c0 0 0 0 0 0 0 0 0 0-0.1 0l0 0C26.8 66.4 26.8 66.4 26.8 66.4zM26.9 67.6c0 0 0 0.1 0 0.1 0 0 0 0.1 0 0.1l-0.1 0 0-0.1c0-0.1-0.1-0.1-0.1-0.1 0 0 0 0 0 0C26.7 67.5 26.8 67.5 26.9 67.6zM26.7 67c0 0 0 0.1 0 0.2l-0.1-0.2 0 0c0 0 0 0 0 0C26.7 67 26.7 67 26.7 67zM26.6 66.5c0 0 0 0 0 0 0 0 0 0 0 0 0.1 0 0.1 0 0.1 0L26.6 66.5zM26.6 65.8l0 0 -0.1 0 0 0L26.6 65.8zM26.5 66.8c0 0 0 0 0 0l0 0.1 -0.1 0c0 0 0 0-0.1 0 0 0 0-0.1 0.1-0.1C26.5 66.8 26.5 66.8 26.5 66.8zM26.5 65l-0.1 0 0 0c0 0 0 0 0 0C26.4 64.9 26.5 65 26.5 65zM26.4 64.8l0 0 -0.1 0 0 0L26.4 64.8zM26.3 65.7c0 0 0 0 0 0l0 0 -0.1 0 0-0.1L26.3 65.7zM26.2 66.5c0.1 0 0.2 0 0.2 0.1l0 0 0 0 -0.1 0c0 0 0-0.1 0-0.1l-0.1 0C26.2 66.6 26.2 66.5 26.2 66.5zM26.2 67.7l0 0.1 0 0 0-0.1L26.2 67.7zM23.2 71c0 0-0.1 0-0.1 0 0 0 0-0.1 0.1-0.1 0 0 0.1 0 0.1 0L23.2 71zM23.9 70.8c0 0-0.1 0-0.1 0 0 0 0 0-0.1 0 0 0 0 0 0.1 0l0 0c0 0 0 0 0 0l0 0C23.9 70.7 23.9 70.7 23.9 70.8zM24.2 69.3l0-0.1 0.2 0 0 0.1L24.2 69.3zM25.7 68.2l0 0 0.1 0 0 0L25.7 68.2zM25.8 63.4c0 0-0.1 0-0.1 0 0 0 0-0.1 0-0.1 0 0 0.1 0 0.1 0 0 0 0 0 0 0 0 0 0 0 0 0C25.8 63.4 25.8 63.4 25.8 63.4zM25.8 66.5c0 0 0 0 0.1 0 0 0 0 0 0 0l-0.1 0L25.8 66.5zM25.8 69.2l0 0 0 0 0 0L25.8 69.2zM25.9 67l0 0 0.1 0 0 0L25.9 67zM26.1 68.3l0 0 -0.1 0c0 0 0.1-0.1 0.1-0.1C26.1 68.3 26.1 68.3 26.1 68.3zM26 65.3l0 0 0 0 0 0L26 65.3zM26 63.8c0 0 0.1 0 0.1-0.1 0 0 0.1 0 0.1 0.1 0 0 0 0 0 0.1l-0.1 0c0 0 0 0 0 0C26 63.8 26 63.8 26 63.8zM26 66c0 0 0 0.1-0.1 0L26 66zM25.7 62.9c0 0 0.1 0 0.1-0.1l0 0c0 0 0 0.1 0.1 0.1 0 0 0 0-0.1 0l-0.2 0 0 0C25.6 63 25.7 62.9 25.7 62.9zM25.6 62.8c0 0 0 0 0 0 0 0 0 0.1 0 0.1l-0.1 0c0 0 0 0 0 0l0-0.1L25.6 62.8zM25.4 62.9l0 0 0 0 0 0L25.4 62.9zM25.3 62.5l0 0.1 0 0 0-0.1L25.3 62.5zM25.3 62.8c0 0.1 0 0.1 0 0.1l-0.1 0 0-0.1C25.2 62.8 25.3 62.8 25.3 62.8zM25.3 66.1c0.1 0.2 0.2 0.4 0.2 0.7l0.2 0.7 -1.1 0.2 0.3-2.4C25.1 65.5 25.2 65.8 25.3 66.1zM24.7 65.5l0-0.1 0 0 0 0.1L24.7 65.5zM24.8 63.7c0 0 0 0 0.1 0 0 0 0 0 0 0.1 0 0 0 0-0.1 0l-0.1 0 0-0.1L24.8 63.7zM24.8 65c0 0 0 0 0 0 0 0 0 0 0 0l0 0.1c-0.1 0.1-0.1 0.1-0.2-0.1C24.6 65.1 24.7 65 24.8 65zM24.6 63.6l0 0 0 0 0 0L24.6 63.6zM24 64.8l0.1 0c0 0 0 0-0.1 0 0 0 0 0 0 0l0 0C24 64.8 24 64.8 24 64.8zM24 67.8c0-0.1 0-0.1 0.1-0.2 0-0.1 0-0.1 0-0.1 0-0.1 0-0.1 0.1-0.3 0.1-0.1 0.1-0.2 0.1-0.2 0 0 0-0.1 0-0.2 0-0.2 0.1-0.4 0-0.3 0-0.1 0-0.1 0-0.1 0 0 0 0 0-0.1 0 0 0 0 0-0.1 0-0.1 0-0.2 0-0.3 0 0 0 0 0.1-0.1 0 0 0-0.1 0.1-0.1l0.1 0c-0.1 0.2-0.1 0.3-0.1 0.3 0 0 0 0.1 0 0.1 0 0-0.1 0.2-0.1 0.2l0 0.2c0 0.2-0.1 0.7-0.1 0.7l0 0.2c0 0.1-0.1 0.1-0.1 0.1 0 0.1-0.1 0.2-0.1 0.2 0 0.1 0 0.2 0 0.3 0 0 0 0 0 0 0 0 0 0-0.1 0 0 0 0 0 0-0.1C24 68 24 67.9 24 67.8zM24 69.5c0 0 0 0.1 0 0.1 0 0 0 0 0 0.1l-0.1 0c0 0 0 0 0 0 -0.1 0-0.2-0.1-0.2-0.1 0 0 0-0.1 0.1-0.1C23.8 69.4 23.9 69.4 24 69.5zM23.7 67.5c0 0 0 0.1 0 0.1 0 0 0 0-0.1-0.1 0 0 0-0.1 0-0.1l0.1 0L23.7 67.5zM23.7 63.1l0 0c0 0.1 0 0.1 0 0.2l0-0.2C23.6 63.1 23.6 63.1 23.7 63.1zM23.6 70c0 0 0 0 0 0 0 0 0 0 0 0 0 0 0-0.1 0-0.1C23.6 70 23.6 70 23.6 70zM23.6 62.5l0 0.1 -0.1 0 0-0.1L23.6 62.5zM23.5 70.9c0 0 0 0 0 0.1l-0.1 0c0 0 0 0 0.1-0.1C23.5 70.9 23.5 70.9 23.5 70.9zM23.4 70.4l0 0.1 -0.1 0c0 0-0.1 0 0 0.1 0 0 0 0 0 0 -0.1 0-0.1-0.1-0.1-0.1 0.1 0 0.2-0.1 0.2-0.2 0 0 0 0 0.1 0C23.4 70.4 23.4 70.4 23.4 70.4zM23.2 70.2c0 0 0 0 0 0 0.1 0 0.1 0 0.1 0l0 0.1 0 0 -0.1 0 0-0.1C23.1 70.2 23.2 70.2 23.2 70.2zM23.1 65.2l0 0.2 -0.1 0 0-0.2L23.1 65.2zM23 64.8c0 0.1 0 0.2 0 0.2 0 0-0.1-0.1-0.1-0.1C22.9 64.9 23 64.8 23 64.8zM22.9 69.9l0 0 0 0C22.9 69.8 22.9 69.9 22.9 69.9z" class="a"/><path d="M30.5 70.9l1.5-0.3c0.3-0.1 0.6-0.1 0.9-0.2 0.6-0.2 1.4-0.6 2-1.3 0.6-0.7 1.2-1.9 1.3-3.4 0.1-1.5-0.2-2.8-0.7-3.8 -0.5-1-1.5-1.7-2.8-1.6 -0.7 0.1-1.4 0.2-2.1 0.5l-1.4 0.6c-0.1 0.1-0.2 0.2-0.2 0.3l1.1 8.9C30.2 70.8 30.3 70.9 30.5 70.9zM30.9 70.1c0 0 0 0-0.1 0 0 0-0.1 0-0.1 0 0 0 0.1 0 0.1 0 0 0 0.1 0 0.1 0 0 0 0.1 0 0.1 0C30.9 70.1 30.9 70.1 30.9 70.1zM31.8 68.9l0-0.1c0.1 0 0.1 0 0.1 0.1C31.8 68.9 31.8 68.9 31.8 68.9zM33.2 69.6l0 0c0 0 0 0 0 0 0 0 0 0 0 0 0 0 0 0 0 0C33.3 69.6 33.2 69.6 33.2 69.6zM34 64.2c0 0 0 0-0.1 0 0 0 0 0 0 0L34 64.1c0.1 0 0.1 0 0.2 0.1 0 0 0 0.1 0 0.1 0 0 0 0 0 0l0.1 0c0 0 0 0 0 0.1l0 0c0 0 0 0-0.1 0 -0.1 0-0.2-0.1-0.2-0.1 0 0 0 0 0 0 0 0 0 0 0 0C34 64.2 34 64.2 34 64.2zM34.3 63.8c0 0 0 0 0-0.1 0 0 0 0 0.1 0 0 0 0 0 0 0 0 0 0 0 0 0l0 0.1C34.3 63.9 34.3 63.9 34.3 63.8zM34.3 66.6c0 0 0 0-0.1 0l0-0.1c0 0 0 0 0.1 0C34.3 66.6 34.3 66.6 34.3 66.6zM34.3 65c0 0 0 0 0 0l0 0 0.1 0C34.4 65 34.4 65 34.4 65c0 0 0 0 0 0C34.3 65.1 34.3 65.1 34.3 65zM34.4 66.6l0 0c0 0 0 0 0 0.1C34.4 66.6 34.4 66.6 34.4 66.6zM34.4 64.8c0 0 0 0 0-0.1l0.1 0c0 0 0 0 0.1 0 0 0 0 0 0 0l0 0.1c0 0 0 0 0 0l-0.1 0C34.4 64.8 34.4 64.8 34.4 64.8zM34.5 66.1L34.5 66l0 0c0 0 0 0 0 0 0 0 0 0 0 0l0.1 0C34.6 66 34.5 66 34.5 66.1zM34.7 64.9c0 0 0 0.1 0 0.1 0 0 0 0-0.1-0.1 0 0 0 0 0 0S34.6 64.9 34.7 64.9zM34.6 64.4c0 0 0.1 0 0.1 0 0 0 0 0 0 0l0 0 -0.1 0c0 0 0 0 0 0C34.7 64.4 34.7 64.4 34.6 64.4zM34.6 64.6l0 0 0 0 0 0L34.6 64.6zM34.6 65.2l0.1 0c0 0 0 0 0 0 0 0 0 0 0 0l0 0 0 0 0 0 0 0 0 0 0 0C34.6 65.2 34.6 65.2 34.6 65.2zM34.7 66.3c0 0-0.1 0-0.1 0 0 0 0-0.1 0-0.1 0 0 0 0 0.1 0 0 0 0.1 0 0.1 0C34.8 66.2 34.8 66.2 34.7 66.3zM34.7 65.9l0 0c0 0 0 0 0 0 0 0 0 0 0 0 0 0 0 0 0 0 0 0 0 0 0 0 0 0 0.1 0 0.1 0 0 0 0 0 0 0l0 0c0 0 0 0 0.1 0 0 0 0 0 0 0 0 0 0 0 0 0L34.7 65.9zM34.9 65.2c0 0-0.2 0-0.2 0 0 0 0 0 0-0.1 0 0 0 0 0-0.1l0.1 0 0 0c0 0 0 0 0.1 0l0 0L34.9 65.2zM34.8 63.1c0 0 0-0.1 0-0.1 0 0 0 0 0 0.1l0 0.1C34.8 63.1 34.8 63.1 34.8 63.1zM35 66.7c-0.1 0-0.1 0-0.1-0.1 0 0 0 0 0-0.1l0.1 0c0 0 0 0 0 0l0 0 0 0C35.1 66.7 35.1 66.7 35 66.7zM35.1 65.9l0-0.1 0 0 0 0.1L35.1 65.9zM35.3 67.1c0 0 0 0 0 0l0 0 0.1 0 0 0.1L35.3 67.1zM35.5 64.9c0 0 0 0 0.1 0 0 0-0.1 0-0.1 0L35.5 64.9zM35.3 63.7l0 0c0 0 0 0 0.1 0l0 0c0 0-0.1 0-0.1 0L35.3 63.7zM35.2 65.3l0 0c0.1 0 0.2 0 0.2 0.1 0 0 0 0 0 0.1 0 0-0.1 0-0.1 0 0 0 0 0-0.1 0l0-0.1C35.2 65.3 35.2 65.3 35.2 65.3zM35.2 65.5c0 0 0 0 0 0l0 0 0 0 0 0C35.2 65.5 35.2 65.5 35.2 65.5zM35.1 65.6c0 0 0 0 0 0 0 0 0 0 0 0 0 0 0 0 0 0.1 0 0 0 0 0 0.1l0 0c-0.1 0-0.1 0-0.1-0.1l0-0.2c0 0 0 0 0 0 0 0 0 0 0-0.1 0 0 0 0 0 0 0 0 0 0 0-0.1 0 0 0 0 0.1 0l0 0c0 0 0 0 0 0l0 0C35 65.3 35.1 65.4 35.1 65.6zM34.9 63.5c0 0 0.1 0 0.1 0l0 0.1c0 0 0 0 0 0 0 0-0.1 0-0.1 0 0 0 0 0 0 0C34.9 63.6 34.9 63.5 34.9 63.5zM34.8 62.9c0 0 0 0 0.1 0.1 0 0 0 0.1-0.1 0.1 0 0-0.1 0-0.1 0C34.8 62.9 34.8 62.9 34.8 62.9zM34.6 62.7l0 0c0 0 0 0 0 0l0.1 0c0 0 0.1 0 0.1 0L34.6 62.7zM34.3 62.2c0 0 0 0 0.1-0.1 0.1 0 0.1 0 0.2-0.1l0 0.1c0 0 0 0 0 0.1 0 0.1-0.1 0.1-0.2 0.1 0 0-0.1 0-0.1-0.1L34.3 62.2zM34.1 63.1c0 0 0 0 0.1 0l0.1 0c0 0 0 0 0 0l0 0c0 0 0 0 0.1 0 0 0 0 0 0 0 0 0.1-0.1 0.1-0.1 0.1 0-0.1-0.1-0.1-0.2-0.1C34.1 63.1 34.1 63.1 34.1 63.1zM33.9 62.3l0 0.1 0 0 0-0.1L33.9 62.3zM33.9 63.1l0.1 0 0 0c0 0 0 0.1-0.1 0.1l-0.1 0 0 0c0 0 0 0 0 0C33.9 63.1 33.9 63.1 33.9 63.1zM33.8 63.8c0 0 0.1 0 0.1-0.1 0 0 0 0 0 0 0 0 0 0 0 0l0 0.1 0 0c-0.1 0-0.1 0-0.1 0 0 0 0-0.1 0-0.1C33.8 63.8 33.8 63.8 33.8 63.8zM33.7 62.9c0 0 0 0 0 0 0 0 0 0 0 0 0 0-0.1 0-0.1 0C33.6 62.9 33.6 62.9 33.7 62.9zM32.8 60.7c0 0 0 0 0 0 0 0 0 0 0.1 0l0 0c0 0 0 0 0 0l0 0 -0.1 0c0 0-0.1 0-0.1 0C32.8 60.8 32.8 60.8 32.8 60.7zM32.8 60.9l0.1 0c0 0 0 0 0 0.1 0 0 0 0 0 0.1 0 0-0.1 0-0.1 0.1 0 0-0.1 0-0.1-0.1C32.7 61 32.7 61 32.8 60.9zM32 61.6l0.2 0 0 0.1 -0.2 0L32 61.6zM31.6 63c0.2-0.1 0.4-0.2 0.7-0.2 0.5-0.2 0.8-0.2 1.1 0.2 0.2 0.4 0.4 0.8 0.5 1.4 0 0 0 0 0-0.1 0.1 0 0.2 0 0.2 0.1 0 0.1-0.1 0.1-0.1 0.1 0 0-0.1 0-0.1 0 0 0 0 0 0 0 0 0.3 0 0.7 0 1.1 0 0.3-0.1 0.6-0.2 1 -0.2 0.7-0.6 1.2-1.4 1.5l-0.1-0.6 0 0c-0.1 0-0.1 0-0.2-0.1 0 0 0-0.1 0-0.1l0-0.1c0 0 0-0.1 0.1-0.1l0.1 0 -0.4-3.4c0 0-0.1 0-0.1 0 0 0-0.1-0.1-0.1-0.2 0.1 0 0.1-0.1 0.2-0.1l0 0L31.6 63zM31.4 67l0.1 0c0 0 0.1 0 0.1 0.1 0 0 0 0-0.1 0 0 0 0 0-0.1 0 0 0 0 0 0-0.1C31.4 67 31.3 67 31.4 67zM31.1 61.2l0.1 0c0 0.1 0 0.1 0 0.1l0 0c0 0-0.1 0-0.1 0C31.1 61.3 31.1 61.3 31.1 61.2zM30.9 69.1c0 0 0.1 0 0.1 0.1 0 0 0 0-0.1 0 0 0-0.1 0-0.2 0 0 0 0 0 0 0l0 0C30.8 69.2 30.9 69.2 30.9 69.1zM30.7 69.5l0.1 0c0 0 0 0.1 0 0.1 0 0 0 0.1 0 0.1 0 0 0 0 0 0.1 0 0-0.1 0.1-0.1 0.1 0 0-0.1 0-0.1-0.1 0-0.1-0.1-0.1-0.1-0.2 0 0 0 0 0 0 0 0 0 0 0 0C30.6 69.5 30.7 69.5 30.7 69.5zM30.6 69.2l0 0 -0.1 0 0 0L30.6 69.2zM30.2 61.5c0 0 0 0 0 0 0 0 0.1 0 0.2 0 0 0-0.1 0-0.2 0l0 0c0 0 0 0 0 0l0 0L30.2 61.5zM29.8 64.7c0 0 0 0 0 0 0 0 0 0 0 0l-0.1-1.3c0 0.1 0.1 0.1 0.1 0.2 0 0 0 0.3 0 0.3 0 0 0 0.1 0 0.1 0 0.2 0 0.3 0 0.4l0 0.1C29.8 64.6 29.8 64.6 29.8 64.7zM29.9 61.5l0 0 0 0 0 0L29.9 61.5zM30.1 65.9c0.1 0 0.1 0 0.2 0.1 0 0-0.1 0-0.1 0l-0.1 0L30.1 65.9zM30.1 68l0 0c0 0 0 0 0 0l0 0C30.1 68 30.1 68 30.1 68z" class="a"/><path d="M37.5 69.3c0 0.2 0.2 0.3 0.4 0.2l5.9-1.4c0.2 0 0.3-0.2 0.2-0.3l-0.3-1.8c0-0.2-0.2-0.3-0.3-0.2l-3.8 0.8 -0.1-1.2 3.1-1c0.2-0.1 0.2-0.2 0.2-0.3l-0.3-1.5c0-0.2-0.2-0.3-0.3-0.2l0.2 1.4 -0.1 0 -0.2-1.4 -2.9 0.7 -0.1-1.2 3.8-1.1c0.2 0 0.2-0.2 0.2-0.3l-0.3-1.7c0-0.2-0.2-0.3-0.4-0.2l-5.8 1.3c-0.2 0-0.2 0.1-0.2 0.3 0.1 1.6 0.3 3.2 0.5 4.8C37.1 66.5 37.3 67.9 37.5 69.3zM42.3 63c0 0 0 0-0.1 0l0-0.1 0.1-0.1c0 0 0.1 0 0.1 0l0 0.1 0 0.1C42.4 63 42.4 63 42.3 63zM42.4 64l0 0.1c0 0 0 0 0 0.1 0 0 0 0 0 0.1l-0.1-0.4C42.4 63.9 42.4 64 42.4 64zM39.5 60.6c0 0 0 0 0 0l0 0 0 0 -0.1 0c0-0.1 0-0.1 0.1-0.1 0 0 0.1 0 0.1 0L39.5 60.6zM39.8 60.7l-0.1 0c0 0 0 0 0 0 0 0 0 0 0-0.1l0 0 0 0c0 0 0 0 0 0 0.1 0 0.1 0 0.1 0C39.8 60.7 39.8 60.7 39.8 60.7zM39.8 61.4l0 0 0 0 0 0L39.8 61.4zM41.8 60.3l0-0.1 0 0 0 0.1L41.8 60.3zM41.9 59.2l0 0 0 0 0 0L41.9 59.2zM40.7 59.5l0 0.1 -0.1 0 0-0.1L40.7 59.5zM40.4 60.3l0 0c0 0 0 0 0 0l-0.2 0C40.3 60.4 40.3 60.4 40.4 60.3zM40.2 60.6c0 0-0.1 0-0.1 0l-0.1 0 0-0.1c0 0 0 0 0.1 0 0 0 0 0 0.1 0C40.1 60.5 40.1 60.5 40.2 60.6zM40.1 60.2l0 0 0 0 0 0 0 0L40.1 60.2zM40 59.7l0 0 -0.1 0 0 0L40 59.7zM39.8 60.4c0.1 0 0.1 0.1 0.1 0.1l-0.1 0L39.8 60.4zM39.7 59.6c0.1 0 0.1 0 0.1 0 0 0 0 0 0 0.1 0 0 0 0 0 0.1l0-0.1c0 0 0-0.1-0.1-0.1 0 0-0.1 0-0.1 0C39.6 59.6 39.6 59.6 39.7 59.6zM39.4 59.5c0 0 0 0 0 0C39.4 59.5 39.4 59.5 39.4 59.5zM39.4 60.2l0 0c0 0 0 0 0 0l0 0c0 0 0 0 0.1 0l-0.1 0.1 0 0c0 0 0 0 0.1 0l0 0 0 0c0 0 0 0 0 0l-0.2 0 0 0C39.3 60.3 39.3 60.2 39.4 60.2zM39.2 60.4l0 0.1 -0.1 0c0 0 0 0-0.1 0C39.1 60.5 39.1 60.4 39.2 60.4zM39.1 59.9c0 0 0.1 0 0 0 0 0-0.1 0.1 0 0.1C39 59.9 39 59.9 39.1 59.9zM38 68.5l-0.1 0 0-0.1 0.2 0C38 68.4 38 68.4 38 68.5zM38.4 68.5l0.2 0 0 0.1 -0.2 0L38.4 68.5zM39.1 64.4c0 0-0.1 0-0.1 0 0 0-0.1 0-0.1 0.1 0 0 0 0-0.1 0l0 0C38.9 64.4 39 64.4 39.1 64.4zM39 64.1c0 0 0 0 0 0l0 0 0 0c0 0 0 0 0 0C39 64.1 39 64.1 39 64.1zM39.4 65.1c0 0-0.1 0-0.1 0l0-0.1C39.3 65.1 39.3 65.1 39.4 65.1zM39.3 65l0 0 0.1 0c0 0 0 0 0 0L39.3 65zM39.3 65.2l0 0c0 0 0 0 0 0l-0.1 0c0 0-0.1 0-0.1 0l-0.1 0c0 0 0 0 0 0s0 0 0.1 0C39.3 65.3 39.3 65.2 39.3 65.2zM39.2 65.4l0 0 -0.1 0 0-0.1L39.2 65.4zM39 65.8l0-0.1c0 0 0 0 0 0l0 0c0 0 0 0 0 0.1 0 0 0 0 0 0.1L39 65.8zM39.1 65.9l0 0 0-0.1 0 0L39.1 65.9zM39.1 65.6l-0.2 0c0 0 0 0 0 0l0.2 0C39.1 65.6 39.1 65.6 39.1 65.6zM39 65.5c0.1 0 0.1 0 0.1 0 0 0-0.1 0-0.1 0L39 65.5zM39.1 65.8c0 0 0 0 0.1 0l0 0c0 0 0 0 0 0l-0.1 0c0 0 0 0 0 0 0 0 0 0 0 0L39.1 65.8zM39 65.3l0-0.1c0 0 0-0.1 0.1-0.1l0 0.1L39 65.3zM39 65.2l0 0c0 0-0.1 0-0.1 0l0-0.1c0 0 0-0.1 0.1-0.2 0 0 0 0 0.1 0 0 0 0 0 0.1 0l0 0.2L39 65.2zM38.9 65.2l0.1 0c0 0 0 0 0 0l0 0.1 -0.1 0C38.8 65.3 38.8 65.3 38.9 65.2zM38.8 65.7l-0.1 0 0.1 0c0 0 0 0.1 0.1 0.1C38.9 65.7 38.8 65.7 38.8 65.7zM38.9 66.5c0 0 0 0 0 0l0 0c0 0-0.1 0-0.1 0C38.8 66.6 38.8 66.5 38.9 66.5zM38.7 64.9c0 0 0 0 0-0.1 0 0 0 0 0-0.1 0 0 0.1 0.1 0.1 0.1C38.8 64.8 38.8 64.9 38.7 64.9zM38.7 64.7l0 0c0 0 0 0 0 0 0 0 0 0 0 0l0 0C38.7 64.7 38.7 64.7 38.7 64.7zM38.7 62.3c0 0 0 0 0 0s0 0 0 0c0 0 0 0.1 0 0.1L38.7 62.3zM38.7 61.6l0 0c0 0 0 0 0 0 0 0 0 0 0 0L38.7 61.6zM38.7 65l0 0.1c0 0-0.1 0-0.1 0C38.6 65.1 38.7 65 38.7 65zM38.7 65.8l0 0c0 0 0 0 0 0l-0.1 0c0 0 0 0 0 0C38.6 65.8 38.6 65.8 38.7 65.8zM38.7 66.4c0 0 0 0 0 0 0 0 0 0-0.1 0l0-0.1c0 0 0.1 0 0.1 0L38.7 66.4zM38.5 65.2c0 0 0 0 0.1-0.1 0 0 0 0 0 0.1L38.5 65.2zM38.6 66.2c0 0 0 0.1-0.1 0.1 0 0 0-0.1 0-0.1L38.6 66.2zM38.6 69.1l0-0.1 0.1 0 0 0.1L38.6 69.1zM38.8 68.8c0 0 0 0.1 0 0.1 0 0-0.1 0-0.2 0l0-0.1 0.2 0C38.8 68.7 38.8 68.7 38.8 68.8zM38.7 68.3l0-0.1 0.2 0 0 0.1L38.7 68.3zM38.9 66.2c0 0 0 0 0 0l0 0 0-0.1 0 0c0 0 0 0 0 0l0 0 0 0.1C38.9 66.2 38.9 66.2 38.9 66.2zM38.9 66.4l0.1 0 0 0 -0.1 0L38.9 66.4zM39 67.7l0-0.1 0.1 0 0 0.1C39 67.7 39 67.7 39 67.7zM39.1 68.7c0-0.1 0-0.2-0.1-0.3 0 0 0.1-0.1 0.1-0.1C39.2 68.4 39.2 68.6 39.1 68.7zM39.1 68l0-0.1 0.1 0L39.2 68 39.1 68zM39.2 66l0.1 0 0 0.1 -0.1 0L39.2 66zM39.3 67.6c0 0-0.1 0-0.1 0l0.1 0c0 0 0 0 0 0L39.3 67.6zM39.3 65.7l0-0.1 0.1 0C39.4 65.7 39.4 65.7 39.3 65.7zM39.2 65l-0.1 0c0 0 0 0-0.1 0 0 0 0 0 0.1-0.1l0.1-0.1 -0.1 0c0 0 0 0 0 0l0.1 0c0 0 0.1 0 0.1 0.1 0 0 0 0 0 0 0 0 0 0 0 0l0.1 0 0 0.1C39.2 65 39.2 65 39.2 65zM40.2 67.1l0 0 0 0 0 0c0 0 0 0 0 0C40.3 67.1 40.3 67.1 40.2 67.1zM40.9 68.2c0 0 0 0 0 0.1l-0.2 0c0 0 0 0 0-0.1 0 0 0-0.1 0-0.1l0.2 0 0.1 0.1C40.9 68.1 40.9 68.1 40.9 68.2zM43.3 68.2c0 0 0 0 0 0l0.1 0C43.3 68.2 43.3 68.2 43.3 68.2zM43.2 67.5l0.1 0 0 0 -0.2 0L43.2 67.5zM41.6 66.7l0 0 0 0 0 0L41.6 66.7zM41.5 68.3l-0.1 0 0 0 0.1 0L41.5 68.3zM41.5 67.3c0 0 0 0 0 0l0 0c0 0-0.1 0-0.1-0.1L41.5 67.3zM41 66.9c0 0 0 0 0 0 0 0 0 0 0 0l-0.1 0L41 66.9zM41 67c0 0 0 0 0 0 0 0 0 0 0 0L40.9 67.1C40.9 67.1 40.9 67.1 41 67zM40.9 67.4l0 0 0 0 0 0L40.9 67.4zM40.7 66.8c0 0 0.1 0 0-0.1l0 0.1c0 0 0 0 0 0 0 0 0 0 0 0l-0.1 0c0 0 0 0-0.1 0C40.7 66.9 40.7 66.9 40.7 66.8zM40.7 67.1c0 0 0 0 0 0 0 0 0 0 0 0 0 0 0 0 0 0l0-0.1C40.6 67 40.7 67 40.7 67.1zM40.4 67.5l0 0c0 0 0 0 0 0s0 0 0 0l0-0.1L40.4 67.5zM40.3 67l-0.1 0 0 0 0.1 0L40.3 67zM40.3 66.9l0 0 -0.1 0 0 0L40.3 66.9zM40 67.5l0.1 0 0 0 0-0.1L40 67.5zM40 68.1l0 0.1 -0.1 0 0-0.1L40 68.1zM39.5 68.6c0 0 0.1 0 0.1 0 0 0 0.1 0 0.2 0 0 0 0 0-0.1 0.1 0 0-0.1 0.1-0.1 0.1 0 0-0.1-0.1-0.1-0.1C39.5 68.6 39.5 68.6 39.5 68.6zM42 64.5l0 0 -0.2 0 0 0L42 64.5zM40.3 63.3l0.1 0 0 0.1 -0.1 0L40.3 63.3zM40.3 63.2l0 0 0 0L40.3 63.2zM40.2 63.2l0 0 0 0L40.2 63.2zM40.1 63.8l-0.1 0c0 0 0 0 0 0 0 0 0 0 0-0.1l0.1 0 0 0.1C40.1 63.8 40.1 63.8 40.1 63.8zM40.1 63.6L40 63.6c0 0 0 0 0-0.1 0 0 0 0 0 0 0 0 0 0 0.1 0L40.1 63.6zM40 63.3c0 0 0 0.1 0 0.1l-0.1 0L40 63.3zM39.5 63.6l0-0.1C39.5 63.5 39.5 63.6 39.5 63.6zM39.3 63.7c0 0 0 0 0 0l0 0c0 0 0 0 0.1 0l0 0.1 0 0L39.4 63.8c0 0-0.1 0-0.1 0L39.3 63.7C39.3 63.7 39.3 63.7 39.3 63.7zM39.3 64.6l0.1 0c0 0-0.1 0-0.1 0 -0.1 0-0.1 0-0.1-0.1L39.3 64.6zM39.2 64.5c0 0.1-0.1 0.1 0 0.2l-0.1 0.1c0 0 0-0.1 0-0.1 0 0-0.1 0-0.1 0 0 0 0.1 0 0.1-0.1 0 0 0.1 0 0.1 0l0.1 0C39.1 64.5 39.1 64.5 39.2 64.5zM39.1 63l0 0.1 -0.1 0 0-0.1L39.1 63zM39 63.3l0 0c0 0 0 0 0.1 0 0 0 0 0 0.1 0l0 0.1c0 0 0 0-0.1 0 -0.1 0-0.1 0-0.1-0.1C38.9 63.3 38.9 63.3 39 63.3zM39 63.8l0.1 0 0 0 0 0c-0.1 0-0.1 0-0.1 0 0 0 0 0-0.1 0C38.9 63.8 39 63.8 39 63.8zM38.9 64.3c0 0 0 0 0.1 0 0 0-0.1 0-0.1 0 0 0 0 0-0.1 0 0 0 0-0.1 0-0.1l0.1 0L38.9 64.3zM38.8 62.6l-0.1 0 0 0 0.1 0L38.8 62.6zM38.6 59.8l0 0 0 0 0.2 0 0 0 -0.2 0 0 0 -0.1 0C38.5 59.9 38.6 59.8 38.6 59.8zM38.5 59.5l0 0 0 0 0 0L38.5 59.5zM38.5 64.5c0 0 0 0 0 0 0 0 0 0 0 0.1 0 0 0 0-0.1 0l0 0c0 0 0 0 0-0.1C38.5 64.5 38.5 64.5 38.5 64.5zM38.4 59.9l0 0 0 0 0 0L38.4 59.9zM38.3 68.7l0 0 0 0.1 0 0L38.3 68.7l-0.1 0 0-0.1 0.1 0L38.3 68.7zM38.1 59.9l0 0 -0.3 0.1 0 0L38.1 59.9zM37.9 60.4c0 0 0 0 0 0 0 0 0 0 0 0l-0.1 0 0 0c0 0 0 0 0-0.1L37.9 60.4zM37.8 68.7c0 0-0.1 0.1-0.2 0L37.8 68.7zM37.1 61.1l0 0 0 0 0 0L37.1 61.1z" class="a"/><path d="M55.8 46c-0.2 0.1-0.4 0.3-0.6 0.4 -0.5 0.3-0.8 0.1-0.8-0.5 0-0.1 0-0.2 0-0.3 -0.2 0-0.3-0.1-0.4-0.1 -0.1 0.1-0.2 0.2-0.3 0.3 0.4 0.4 0.3 0.7 0.1 1.1 0 0 0 0.1 0.1 0.2 0.1-0.2 0.1-0.4 0.2-0.6 0.1 0.2 0.2 0.4 0.3 0.5 0.2 0.3 0.6 0.3 0.7 0 0.2-0.7 0.8-0.8 1.4-0.8C56.3 45.8 56.2 45.7 55.8 46z" class="a"/><path d="M56.9 33.4c0.6-0.6 0.8-1.3 0.8-2.1 -0.4 0.3-0.9 0.3-1 0.8 -0.1 0.3-0.2 0.7-0.3 1 0 0.1 0 0.3 0.1 0.3C56.7 33.5 56.9 33.5 56.9 33.4z" class="a"/><path d="M60.9 40.9c0.3-0.2 0.7-0.4 0.9-0.5 -0.2-0.2-0.2-0.2 0.4-0.9 -0.2-0.3-0.4-0.5-0.6-0.1 -0.3 0.5-0.6 0.6-1.1 0.3 0.2 0.3 0.3 0.6 0.5 0.9C60.9 40.6 60.9 40.8 60.9 40.9z" class="a"/><path d="M64.6 41.2c0.3-0.1 0.7-0.8 0.7-1.1 0-0.2 0-0.4 0.1-0.5 0-0.1 0.2-0.2 0.2-0.3 -0.1 0-0.1-0.1-0.1-0.1 -0.3 0.3-0.5 0.7-0.8 1 -0.1 0.2-0.2 0.5-0.3 0.8 0 0 0 0.1 0 0.2C64.5 41.2 64.6 41.3 64.6 41.2z" class="a"/><path d="M64.1 41.2c-0.4 0.1-0.8 0.2-1.2 0.3 0 0 0 0.1 0 0.1 0.4 0.1 0.8 0.2 1.2 0.2C63.7 41.7 64.2 41.4 64.1 41.2z" class="a"/><path d="M54.1 39.3c0 0-0.1 0.1-0.1 0.1 0.1 0.2 0.2 0.5 0.3 0.9 0.2-0.3 0.4-0.5 0.4-0.6C54.5 39.6 54.3 39.5 54.1 39.3z" class="a"/><path d="M60 42.2c-0.4-0.2-0.9-0.4-1.3-0.5 0 0.1-0.1 0.2-0.1 0.2 0.4 0.2 0.9 0.3 1.3 0.5C60 42.3 60 42.2 60 42.2z" class="a"/><path d="M55.9 41c0.1 0 0.1-0.1 0.1-0.1 -0.3-0.2-0.5-0.5-0.8-0.7 0 0-0.1 0.1-0.1 0.1C55.3 40.7 55.6 40.8 55.9 41z" class="a"/><path d="M55.1 37.1c0 0 0-0.2 0-0.3 -0.4 0.2-0.6 0.4-0.9 0.5C54.5 37.7 54.8 37.2 55.1 37.1z" class="a"/><path d="M53.5 49.3c0.1 0 0.1 0 0.2 0 0-0.5 0.1-1 0.1-1.5 -0.1 0-0.1 0-0.2 0C53.6 48.3 53.5 48.8 53.5 49.3z" class="a"/><path d="M66 37.6c0-0.4 0-0.8-0.1-1.2 -0.1 0-0.1 0-0.2 0 0 0.4 0.1 0.8 0.1 1.2C65.9 37.6 65.9 37.6 66 37.6z" class="a"/><path d="M2.2 38.4c-0.2 0.1-0.4 0.2-0.6 0.3 -0.5 0.2-0.7 0.1-0.8-0.5 0-0.1 0-0.2 0-0.3 -0.1 0-0.3-0.1-0.4-0.1 -0.1 0.1-0.2 0.2-0.3 0.3 0.4 0.3 0.2 0.7 0.1 1.1 0 0 0 0.1 0.1 0.2 0.1-0.2 0.1-0.3 0.2-0.6 0.1 0.2 0.2 0.3 0.3 0.5 0.2 0.3 0.5 0.3 0.6 0 0.2-0.7 0.7-0.8 1.4-0.8C2.7 38.3 2.6 38.2 2.2 38.4z" class="a"/><path d="M9 34.2c0 0 0 0.1 0 0.1 0.4 0.1 0.8 0.1 1.2 0.2 -0.5-0.2 0-0.5 0-0.6C9.7 34 9.4 34.1 9 34.2z" class="a"/><path d="M1.1 32.5c-0.1-0.2-0.4-0.3-0.5-0.4 0 0-0.1 0.1-0.1 0.1 0.1 0.2 0.1 0.5 0.3 0.9C1 32.8 1.2 32.6 1.1 32.5z" class="a"/><path d="M2.5 43.8c0 0 0 0.2 0 0.2 0.1 0.2 0.2 0.3 0.3 0.6 0.1-0.1 0.2-0.2 0.2-0.3 0-0.2-0.1-0.4-0.2-0.6C2.8 43.7 2.6 43.7 2.5 43.8z" class="a"/><path d="M2.3 33.7c0 0 0.1-0.1 0.1-0.1 -0.3-0.2-0.5-0.5-0.8-0.7 0 0-0.1 0.1-0.1 0.1C1.7 33.4 2 33.5 2.3 33.7z" class="a"/><path d="M1.5 30c0 0 0-0.2 0-0.3 -0.3 0.2-0.6 0.3-0.9 0.5C1 30.5 1.2 30.1 1.5 30z" class="a"/><path d="M0 41.6c0.1 0 0.1 0 0.2 0 0-0.5 0.1-1 0.1-1.5 -0.1 0-0.1 0-0.2 0C0.1 40.7 0 41.1 0 41.6z" class="a"/><path d="M17.8 48.7c-0.1 0.2-0.3 0.2-0.5 0.1 -0.1-0.1-0.3-0.2-0.4-0.2 0 0 0 0.1-0.1 0.1 0.3 0.3 0.7 0.5 1 0.8 0.1-0.2 0.2-0.3 0.3-0.4 0.2-0.3 0.4-0.5 0.6-0.8 0.1-0.1 0.1-0.2 0.2-0.2 0.5-0.2 0.9 0 1.2 0.5 0.1-0.1 0.4-0.2 0.4-0.3 0.1-0.2 0-0.4 0-0.6 0-0.1-0.1-0.2-0.2-0.4 0 0-0.1 0-0.1 0.1 0 0.2 0 0.4 0 0.6 -0.5 0.1-0.5-0.8-1-0.4 -0.3 0.2-0.9 0-0.8 0.8 -0.1-0.2-0.2-0.4-0.3-0.5 0 0-0.1 0-0.1 0.1 0.1 0.1 0.2 0.3 0.2 0.4 0 0.1 0.1 0.2 0 0.3 0 0-0.1 0-0.2 0.1C17.9 48.6 17.8 48.6 17.8 48.7z" class="a"/><path d="M26.6 41.9c0.5-0.5 0.7-1.1 0.7-1.8 -0.3 0.3-0.8 0.3-0.8 0.7 0 0.3-0.2 0.6-0.3 0.9 0 0.1 0 0.2 0.1 0.3C26.4 41.9 26.6 41.9 26.6 41.9z" class="a"/><path d="M24.1 47.1c0.1 0.2 0.1 0.4 0.3 0.8 0.2-0.2 0.3-0.4 0.3-0.5 -0.1-0.2-0.3-0.3-0.5-0.4C24.2 47.1 24.1 47.1 24.1 47.1z" class="a"/><path d="M25.8 48.5c0 0 0.1-0.1 0.1-0.1 -0.2-0.2-0.5-0.4-0.7-0.6 0 0-0.1 0.1-0.1 0.1C25.2 48.2 25.5 48.3 25.8 48.5z" class="a"/><path d="M25 44.8c-0.3 0.2-0.6 0.3-0.8 0.4 0.3 0.4 0.6-0.1 0.8-0.1C25 45.1 25 44.9 25 44.8z" class="a"/><path d="M34.5 44.5c0 0-0.1 0-0.1 0 0 0.4 0.1 0.7 0.1 1.1 0 0 0.1 0 0.1 0C34.5 45.2 34.5 44.8 34.5 44.5z" class="a"/><path d="M39 29.7c-0.1 0-0.3 0.1-0.4 0.1 0.1 0 0.3 0 0.4 0C39 29.8 39 29.7 39 29.7z" class="a"/><path d="M39.7 29.8c0.2 0 0.3 0 0.5 0 0 0.2 0 0.4-0.1 0.5 -0.2 0-0.4 0-0.6 0.1 -0.4 1.2-0.7 2.4-1.1 3.6 0.1-0.5 0.1-0.9 0.2-1.4l0.1-0.9c0.1-0.4 0.1-0.8 0.2-1.2 -0.6 0-1.2 0-1.7-0.3 0-0.2 0-0.3 0.1-0.5 0.2 0 0.3 0 0.5 0 -1-0.2-1.9-0.5-2.8-0.2 0 0.1 0 0.2 0 0.3 0.2 0 0.4 0 0.6 0.1 0.2 0 0.1 0.9 0.2 1.8 -0.4-0.2-0.7-0.4-0.9-0.6 0 0.1 0 0.1 0 0.2l-0.1 0.9c-0.2 1.3-0.4 2.7-0.3 4.1l0 0.1c0 1.2 0.1 4 2.6 4.6 0.2 0.1 0.5 0.1 0.7 0.1 2.3 0 3.7-2.4 4.1-3.6 1.4-4.1 2.6-8.4 3.8-12.5l0.4-1.3c0.3-1.2 0.6-2.3 0.9-3.5 0.3-1.2 0.6-2.5 1-3.7 0.4-1.2 0.6-1.6 0.7-1.7 0.6-0.5 1.2-0.7 1.4-0.8 0.2 0.2 0.6 0.6 0.7 0.8 0.1 0.7 0.1 1.5 0 2.3 0.1 2 0.1 2 0.7 2.1 -0.3 0.7-0.6 1.7-1 2.7 -0.2-0.3-0.3-0.5-0.5-0.8 -0.4 1.9-0.8 3.7-1.2 5.5 0.7-0.2 1.4-0.4 2-0.6 0.1 0.2 0.1 0.4 0.2 0.5 -0.8 0.3-1.6 0.5-2.4 0.8 -0.1 0.4-0.2 0.8-0.3 1.2 -0.8 3.6-1.7 7.2-2.4 10.9 -0.3 1.2-0.5 2.4-0.7 3.6 0.9 1 1.9 0.9 2.4-0.4 0.3-0.6 0.5-1.2 0.7-1.8 0.1-0.3 0.2-0.5 0.3-0.6 0.4 0 0.7 0.2 1 0.6 -1.1 1-1.7 2.1-1.2 3.7 0.3 0.8-0.5 1.4-1.3 1.1 -0.4-0.1-0.9-0.3-1.5-0.5 0.2 0.6 0.3 1 0.5 1.6 -0.3-0.2-0.6-0.3-0.6-0.4 -0.1-0.5-0.3-1.1-0.5-1.4 -0.3 1.8-0.5 3.5-0.7 5.2l0 0.1c-0.2 1.6-0.7 5.1 2.6 7 0.9 0.6 1.9 0.9 3 0.9 1.5 0 3-0.6 4.6-1.9 1.3-1 2.4-2.2 3.4-3.4 0.3-0.3 0.5-0.5 0.8-0.8 0.1 0 0.2 0 0.3 0.1 -0.1-0.1-0.1-0.1-0.2-0.1 0.4-0.4 0.9-0.9 1.3-1.3 0.3-0.3 0.6-0.6 0.9-0.8 1.3-1.2 2.5-2.4 3.9-3.2 0.5-0.3 1.1-0.4 1.9-0.5 -0.8-0.8-1.7-1.6-2.4-2.3 -0.3 0.3-0.6 0.6-0.9 1 -0.2-0.5-0.5-1-0.4-1.5 0-0.1 0-0.2 0-0.3 0 0 0 0 0 0 -1.8 1-3.3 2.4-4.7 3.8 0 0 0 0-0.1 0.1 0 0 0 0 0 0 0 0 0 0 0 0 -0.3 0.3-0.5 0.5-0.8 0.8 -0.8 0.8-1.6 1.5-2.3 2.3 -1 1.1-2 2.1-3.1 3 -0.8 0.6-1.4 1-2 1 -0.3 0-0.6-0.1-0.9-0.3 -0.7-0.4-0.9-1-0.7-3l0-0.1c0.4-3.2 0.9-6.6 1.5-9.8 0.1-0.1 0.3-0.2 0.3-0.3 0.1-0.2 0-0.4-0.1-0.6 0 0 0-0.1 0-0.1 0.7-3.5 1.5-7 2.3-10.4 0.7-3.1 1.5-6.3 2.2-9.5 0.5-2.3 0.6-4.2 0.3-5.9 -0.3-1.6-1.9-3.7-3.8-4.2 -0.3-0.1-0.5-0.1-0.8-0.1 -1.9 0-3.6 1.3-4.1 1.8 -1.1 0.9-1.6 2.4-2 3.7 -0.4 1.3-0.7 2.6-1 3.9 -0.3 1.1-0.6 2.3-0.9 3.4l-0.4 1.3C40.9 25.8 40.3 27.8 39.7 29.8zM49 40c0.2 0 0.3 0.1 0.5 0.2 0 0 0 0 0 0C49.3 40.3 49.1 40.2 49 40z" class="a"/><path d="M72.7 44.7c-0.7-1.5-2.2-2.5-4.1-2.6 -0.4 0-0.8 0-1.2 0 -0.8 0-1.8 0.1-2.8 0.3 1 1 1.5 2.3 1.8 3.8 0.3 0 0.7-0.1 1.1-0.1 0.3 0 0.6 0 0.9 0 0.5 0 0.7 0.2 0.7 0.2 0 0.1 0 0.3-0.3 0.7 -0.8 1-1.7 2-2.7 3 -1 1-2 2.1-2.9 3.2 -1.6 2-3.1 4.1-4.6 6.1 -2.1 2.9-4.3 5.8-6.6 8.6 -2.7 3.2-5.7 6.4-9.4 9.6 -3.7 3.3-8.3 4.6-13.7 4 -4.9-0.6-9.9-1.4-14.8-2.4 -3.1-0.6-5.1-2.7-6.2-6.5 -1.7-5.8-1.6-11.7-1.2-17.2 0.2-2.9 0.4-5.8 0.6-8.7 0.4-4.7 0.7-9.5 1-14.3 0.1-0.1 0.1-0.2 0.2-0.3 -0.1-0.1-0.1-0.2-0.2-0.2 0.1-2.8 0-5.7-0.1-8.4 -0.2-0.5-0.5-1.1-0.9-1.5 -0.2-0.2-0.1-0.8-0.1-1.3 0.1 0 0.3-0.1 0.4-0.1 0.2 0.2 0.4 0.5 0.5 0.7 0-1.6-0.1-3.2-0.1-4.7 0-1.7 0.3-2 0.3-2.1 0 0 0.1-0.1 0.4-0.1 0.4 0 0.7 0 0.9 2.3 0.3 2.6 0.5 5.1 0.8 7.7 0.7 0.9 1.4 1.9 2.2 2.9 -0.2 0.3-0.6 0.8-0.9 1.3 -0.3-0.3-0.6-0.6-0.9-0.8 0 0.4 0.1 0.7 0.1 1.1 0.1 1.2 0.2 2.4 0.4 3.6 -0.1 0.2-0.3 0.4-0.4 0.6 -0.1 0.2-0.2 0.5-0.3 0.8 0 0 0 0.1 0 0.2 0 0 0.1 0.1 0.2 0 0.2 0 0.5-0.4 0.6-0.7 0.1 0.6 0.1 1.1 0.2 1.7 0 0.2 0 0.3 0 0.5 0.1 0.7 0.1 1.6 0.5 2.5l0.1 0.2c0.4 0.9 1.3 2.7 3.2 2.7l0.3 0c1.6-0.2 2.7-1.6 2.8-3.7 0.3-3.7 0.5-7.4 0.8-11 0.3-3.7 0.5-7.5 0.8-11.2 0.2-2.4 0.6-4.8 1-7 0.3-1.8 0.7-1.9 1.3-1.9 0 0 0 0 0 0 0.3 0 0.6 0 0.7 1.5 0.2 5.7 0.2 11.4 0.2 16.5 0 2-0.1 4.1-0.1 6.1 0 1.2-0.1 2.5-0.1 3.8 0 0.7 0 1.7 0.5 2.6l0.1 0.2c0.2 0.3 0.5 0.8 0.9 1.3 0 0 0-0.1 0.1-0.1 0.4 0.2 0.8 0.3 1.1 0.6 0.2 0.2 0.4 0.3 0.6 0.5 0.1 0 0.2 0 0.3 0l0.2 0c0.6-0.1 2.2-0.5 2.8-3 0.5-2.1 0.9-4.3 1.4-7.2 0-0.2 0.1-0.4 0.1-0.6 -0.6-0.6-1.1-1.3-1.1-2 0.4 0.4 0.9 0.7 1.3 1 0.1-0.8 0.3-1.6 0.4-2.5 -0.2 0.6-0.4 1.1-1.4 1 0.3-0.8 0.7-1.6 1.1-2.6 0.1 0.1 0.3 0.3 0.5 0.5 0.2-1 0.3-2 0.5-3 0.7-3.8 1.3-7.7 2-11.5 0.3-1.6 0.6-2.9 1-3.9 0.4-1 0.9-1 1.1-1 0.1 0 0.1 0 0.2 0 0.3 0 0.8 0.1 1 1.3 0.1 1 0.2 1.8 0.1 2.5 -0.3 2.3-0.7 5.7-1 8.6 -0.2 1.4-0.3 2.7-0.4 3.7 -0.1 0.5-0.1 1-0.1 1.5l0 0 -0.4 2.8c-0.1 1.1-0.3 2.2-0.4 3.2 0.7-0.2 1.1-0.1 1.1 0.7 0 0.9 0.5 0.8 1.1 0.8 0.6 0.1 1.1 0.2 1.7 0.3 0.2-1.5 0.4-3 0.6-4.5l0.7-4.8 -0.1 0c0.3-2.5 0.9-7.3 1.4-11.7 0.1-1.1 0.1-2.2-0.1-3.6 -0.4-2.8-2-4.5-4.5-4.8C36.8 0 36.5 0 36.3 0c-2.2 0-4 1.3-4.9 3.6 -0.5 1.3-0.9 2.8-1.2 4.7 -0.2 1.1-0.4 2.3-0.6 3.4 0 0.4 0 0.8 0 1.2 0 0.1-0.1 0.3-0.2 0.4 -0.4 2.2-0.8 4.4-1.1 6.6 -0.3 1.9-0.6 3.8-1 5.7 0-0.5 0-1 0-1.5 0-4.3 0-9-0.1-13.8 -0.2-0.5-0.2-0.9 0-1.3 0-0.5 0-1.1-0.1-1.6 -0.2-4.9-3.4-5.4-4.8-5.4 -2.9 0-4.7 1.8-5.3 5.2 -0.4 2.3-0.8 4.8-1 7.4 -0.3 3.7-0.5 7.5-0.8 11.2 -0.1 1.1-0.2 2.2-0.2 3.3 0-0.2 0-0.5-0.1-0.7 -0.4-4-0.8-8-1.3-12.1 -0.2-1.6-0.7-5.9-5-5.9 -2.2 0-4.8 1.1-4.8 6.2 0 2.2 0.1 4.4 0.1 6.5 0 0.5 0 1 0 1.5 -0.3 0.2-0.7 0.3-0.8 0.7 -0.1 0.3-0.2 0.6-0.3 1 0 0.1 0 0.3 0.1 0.3 0.1 0 0.3 0 0.3 0 0.4-0.4 0.6-0.9 0.7-1.5 0.1 2.3 0.1 4.7 0 7C3.8 36.8 3.4 41.7 3 46.5c-0.2 2.9-0.5 5.8-0.7 8.8 -0.1 1.9-0.2 3.9-0.2 5.9 1.2-0.3 1.6-1 1.4-2.3 -0.2-1.3 0.6-1.1 1.5-0.9 0.1 2.4 0.1 2.4 0.7 2.5 -0.3 0.7-0.6 1.7-1 2.7 -0.2-0.3-0.3-0.5-0.5-0.8 -0.7-0.3-1.4-0.6-2.1-0.9 0 2.2 0.1 4.4 0.4 6.6 0.8-0.2 1.7-0.5 2.5-0.7 0.1 0.2 0.1 0.4 0.2 0.5 -0.9 0.3-1.7 0.6-2.6 0.9 0.2 1.7 0.6 3.4 1.1 5.2 1.5 5.3 4.7 8.5 9.3 9.4 1.3 0.3 2.7 0.5 4 0.7 0.1-0.5 0.3-1 0.4-1.5 1 0.5 1.7 1.2 2.3 2 2.9 0.5 5.7 0.9 8.5 1.2 1 0.1 2.1 0.2 3.1 0.2 2.9 0 5.7-0.6 8.2-1.6 -0.3-0.2-0.7-0.3-1-0.4 0-0.1 0.1-0.2 0.1-0.3 0.3 0.1 0.6 0.2 1.2 0.4 -1.1-1.2 0.2-1.7 0.4-2.4 0.4-1.4 1.6 0.2 2.4-0.8 -0.3-0.3-0.6-0.7-0.9-1 0-0.1 0.1-0.2 0.1-0.2 0.3 0.1 0.6 0.2 0.8 0.4 0.3 0.3 0.7 0.6 0.9 0.9 0.1 0.3-0.2 0.7-0.3 1.1 -1.2-0.6-2.2-0.3-2.8 0.7 -0.1 0.2 0 0.5 0 0.7 0 0.2 0 0.3 0 0.5 1.7-0.8 3.3-1.9 4.7-3.2 2.5-2.2 4.7-4.4 6.7-6.5 -0.2 0-0.4-0.1-0.7-0.2 0-0.1 0-0.3 0-0.4 0.4 0 0.7 0 1.1 0.1 0.9-1 1.8-2 2.6-3 1.7-2.1 3.4-4.2 5-6.4 0-0.2 0.1-0.3 0.3-0.4 0.5-0.7 1-1.4 1.5-2.1 1.5-2 3-4 4.5-6 0.8-1 1.7-1.9 2.6-2.9 1-1.1 2-2.2 3-3.4C73 48 73.3 46.2 72.7 44.7zM29.8 28.1c0.3 0.5 0.7 0.8 0.6 0.9 -0.1 0.4-0.4 0.7-0.7 1.1 -0.2-0.2-0.6-0.4-0.6-0.6C29.3 29.1 29.5 28.8 29.8 28.1zM15.8 37.8c0.1-0.2 0.3-0.6 0.5-0.6 0.4 0 0.9 0.2 1 0.4 0.5 0.8 0 2-0.8 2.3 -0.5 0.1-0.9 0.3-1.6 0.4C15.2 39.3 15.5 38.5 15.8 37.8zM4.9 41c-0.4 0-0.8-0.3-1.1-0.4 0.1-0.1 0.1-0.1 0.2-0.2 0 0 0 0 0 0 0 0 0.1 0 0.1 0 0 0 0-0.1 0-0.1 0.2-0.2 0.4-0.4 0.6-0.5 0.3-0.1 0.7-0.1 1 0 0.1 0 0.2 0.4 0.1 0.6 -0.1 0-0.3 0.1-0.5 0.2 0 0.1 0.1 0.1 0.1 0.2C5.4 41 5.1 41.1 4.9 41zM16.5 81.2c0.1 0.2 0.2 0.5 0.5 1.1 -1.3-0.3-2.4-0.5-3.4-0.7 0.7-2 1.3-2.2 4.4-1.3C17.4 80.6 17 80.9 16.5 81.2zM48.5 74c0-0.1 0-0.2 0-0.3 0.5 0 1-0.1 1.4 0 0.1 0 0.1 0.7 0.1 1.3C49.3 74.6 48.9 74.3 48.5 74zM64.5 56.8c-0.5-0.6-1.1-1.2-1.6-1.7 0.1-0.1 0.2-0.1 0.2-0.2 0.5 0.6 1 1.2 1.6 1.8C64.6 56.7 64.5 56.8 64.5 56.8z" class="a"/><path d="M45.1 61.7c0.2-0.1 0.5-0.3 0.5-0.5 0.2-1.5-0.4-2.9-1.3-4.3 -0.2 0.9-1 1.5-0.4 2.4 0.3 0.6 0.5 1.3 0.7 1.9C44.7 61.5 44.9 61.7 45.1 61.7z" class="a"/><path d="M58.4 71.7c0.1 0.2 0.1 0.3 0.2 0.5 0.9-0.3 1.7-0.6 2.6-0.9 0-0.1-0.1-0.3-0.1-0.4C60.1 71.2 59.2 71.4 58.4 71.7z" class="a"/><path d="M53.3 74.1c0-0.1 0-0.3 0-0.4 -0.4 0-0.7 0-1.1-0.1 -0.2 0.2-0.3 0.4-0.5 0.5C52.3 74.3 52.8 74.2 53.3 74.1z" class="a"/><path d="M46.8 68.7c-0.3 0.7-0.5 1.3-0.8 1.9 1.1 0.1 0.9-0.9 1.3-1.4C47.3 69.1 46.9 68.8 46.8 68.7z" class="a"/></svg>