<svg xmlns="http://www.w3.org/2000/svg" width="37" height="37" viewBox="0 0 36.7 36.7"><path d="M32.3 0H4.4C2 0 0 1.9 0 4.3v28c0 2.4 2 4.3 4.4 4.3h27.9c2.4 0 4.4-1.9 4.4-4.3V4.3C36.7 1.9 34.7 0 32.3 0M26.4 5.7c0-0.6 0.5-1.1 1.1-1.1h3.4c0.6 0 1.1 0.5 1.1 1.1v3.4c0 0.6-0.5 1.1-1.1 1.1h-3.4c-0.6 0-1.1-0.5-1.1-1.1V5.7zM18.4 11.3c3.9 0 7.1 3.1 7.1 7 0 3.9-3.2 7-7.1 7s-7.1-3.1-7.1-7C11.3 14.5 14.5 11.3 18.4 11.3M33.2 32.1c0 0.6-0.5 1.1-1.1 1.1H4.6c-0.6 0-1.1-0.5-1.1-1.1V14.9H8c-0.6 0.9-0.8 2.5-0.8 3.5 0 6.1 5 11.1 11.2 11.1s11.2-5 11.2-11.1c0-1-0.1-2.6-0.9-3.5h4.6V32.1z" fill="#FFF"/></svg>