<svg xmlns="http://www.w3.org/2000/svg" width="88" height="76" viewBox="0 0 88 75.5"><style>    .a{fill:#8BC03F;}</style><path d="M60.2 71.9c0.6-0.7 0.9-1.1 1.1-1.4-0.5-0.3-0.9-0.7-1.3-1-0.4 0.1-0.8 0.1-1.1 0.1C59.3 70.4 59.7 71.1 60.2 71.9z" class="a"/><path d="M62.1 62.7c0.1-1.2 0.1-1.9-0.1-2.6-0.2 1-0.4 2-0.6 3L62.1 62.7z" class="a"/><path d="M60.6 65.7c0.2-0.1 0.5-0.1 0.7-0.2 0.2-0.5 0.4-1 0.5-1.5l-0.8 0.2C60.9 64.7 60.8 65.2 60.6 65.7z" class="a"/><path d="M30.3 21.7c-1.1-0.4-2.3-0.5-2 1.2 0.1 0.7 0.1 1.2 0 1.7 0.9 0.7 1.7 1.4 2.5 2 0.2-0.5 0.4-1 0.5-1.4C30.3 25 30.3 25 30.3 21.7z" class="a"/><path d="M46.7 57.5c0.3 0.8 0.6 1.6 0.8 2.5 0.2-0.2 0.5-0.5 0.7-0.7-0.4-1.1-0.8-2.2-1.2-3.3C47 56.5 46.8 57 46.7 57.5z" class="a"/><path d="M46 53.6c0 0 0 0 0.1 0-0.3-0.6-0.5-1.2-0.8-1.8-0.9-0.1-1.5 0-1.9 0.3 0.8 0.8 1.5 1.8 2.1 2.8 0.4 0.1 0.8 0.2 1.3 0.3C46.3 54.2 46.1 53.8 46 53.6z" class="a"/><path d="M54.9 60.8c-0.4 0.5-0.4 1.5-0.3 2.5 0.2-0.6 0.4-1.1 0.5-1.7C55.1 61.3 55 61 54.9 60.8z" class="a"/><path d="M57.4 34.9c0.2-0.2-0.2-1.2-0.4-1.2-0.4 0-0.8 0.1-1.3 0.1 0.3 0.6 0.6 1.2 0.8 1.8C56.9 35.4 57.1 35.2 57.4 34.9z" class="a"/><path d="M56.4 27.4c-2.1-0.2-3.1 0.5-3.3 2 0.2 0.2 0.3 0.5 0.5 0.7C55.2 30.1 55.2 28.2 56.4 27.4z" class="a"/><path d="M39.9 22.5c-1 1.2-1.8 2.3-2.7 3.5 0.1 0.1 0.1 0.3 0.2 0.4 1.3-0.7 2.7-1.4 4-2.1C39.6 24.8 40.4 22.7 39.9 22.5z" class="a"/><path d="M25.7 36.9c1.2-0.4 2.4-0.8 3.7-1.2-0.3-0.2-0.6-0.4-0.9-0.6-1 0.3-2.1 0.6-3.1 0.9C25.5 36.3 25.6 36.6 25.7 36.9z" class="a"/><path d="M48.8 66.5c0 0 0 0 0 0 0 0 0 0 0.1 0C48.8 66.5 48.8 66.5 48.8 66.5z" class="a"/><path d="M37 56.8c0.1-0.1 0.2-0.3 0.4-0.4-0.9-0.8-1.7-1.6-2.9-2.7C34.2 56.5 35.6 56.7 37 56.8z" class="a"/><path d="M15.9 40.5c0-0.3 0.1-0.5 0.1-0.7-1.2-0.1-2.5-0.2-3.7-0.2 0 0 0.1 0.1 0.1 0.1 0.2 0.3 0.3 0.5 0.4 0.7l0.1 0.1 0.1 0.2C14 40.8 15 40.6 15.9 40.5z" class="a"/><path d="M2.3 34c1 0.1 1.5-0.3 1.7-0.9-0.2-0.5-0.5-1.1-0.7-1.6C2.9 32.4 2.6 33.1 2.3 34z" class="a"/><path d="M24.7 65.3c0.2 0.2 0.3 0.5 0.5 0.7 0.4 0.3 0.9 0.5 1.3 0.8-0.4-0.6-0.9-1.3-1.3-1.9C25 65 24.8 65.2 24.7 65.3z" class="a"/><path d="M80.3 60.1c0.3 1 0.5 1.9 0.8 2.9 0.2 0 0.4-0.1 0.5-0.1C82.1 61.7 81.8 60.7 80.3 60.1z" class="a"/><path d="M37.1 8c-1-1.1-1.9-2.2-2.9-3.3-0.1 0.1-0.3 0.3-0.4 0.4 1 1.1 2 2.2 3 3.3C36.9 8.2 37 8.1 37.1 8z" class="a"/><path d="M50.7 17c-0.3 0.5-0.7 1-1.3 1.9 1.5-0.1 2.4-0.2 3.1-0.3C51.9 18.1 51.3 17.6 50.7 17z" class="a"/><path d="M79.8 32.9l-0.1-0.8c-0.1 0.1-0.2 0.1-0.3 0.2 0 0 0-0.1 0-0.1 0.1-0.1 0.2-0.3 0.3-0.4l-0.2-2.1-2.1 1.6c0 0.7 0 0.7 0.3 0.7-0.1 0.3-0.2 0.7-0.4 1-0.1-0.1-0.1-0.2-0.2-0.3-0.3-0.1-0.6-0.3-1-0.4-3 2.5-6.3 4.1-10 4.9-1.6 0.4-3.2 0.9-4.8 1.4-0.6 0.2-1.3 0.4-1.9 0.6-0.3 0.1-0.8 0.3-1.2 0.8-0.5-1.5-1.1-3-1.7-4.4-0.4 0.3-0.8 0.5-1.2 0.8-0.5-0.8-0.8-1.3-1.4-2.2 0.7-0.1 1.2-0.2 1.7-0.3-0.7-1.3-1.4-2.5-2.2-3.7-0.2 0-0.3 0-0.5-0.1 0-0.2 0-0.4 0-0.6-1.9-2.7-4.2-5.2-6.9-7.3-1.4-1.1-2.9-2.1-4.4-3 0.1 0.9 0 1.8-0.3 2.2-0.1 0.2-0.4 0.3-0.6 0.3-0.2 0-0.4-0.2-0.5-0.4-0.4-1.1-0.8-2.2-1.1-3 0-0.2 0-0.3 0-0.5-3-1.5-6.3-2.6-9.9-3.5-3.1-0.7-6.2-1.5-9.2-2.4 0 0 0 0 0 0.1-0.8-0.2-1.5-0.3-2.2-0.4 0-0.1 0.1-0.2 0.1-0.3C12.5 9.2 7.7 5.6 4.1 2.7 4 2.5 3.8 2.4 3.6 2.2L0.6 0l-0.3 3.4C0.1 5.7 0 7.9 0 10c1.1 2.1 1.8 4.1 1.5 6.4 0 0.4-0.6 0.8-1 0.9-0.1 0-0.2 0-0.3-0.1 0.2 2.2 0.5 4.4 0.9 6.4 0.5 2.8 1.3 5.4 2.2 7.8 0.1-0.3 0.3-0.7 0.5-1.1 0.3 0.3 0.9 0.9 0.8 1-0.3 0.5-0.4 1.2-0.6 1.8 0.9 2.1 2 4.1 3.3 5.9l-2.6-0.3-0.9 0-1.7 1.7 0.5 1.2c0.3 0.6 0.5 1.2 0.8 1.8 0.6 1.4 1.2 2.8 1.9 4.2 1.5 2.8 3.5 5.3 6.1 7.5v2l0 0.7 0.3 0.5c0.1 0.2 0.2 0.3 0.3 0.5 5.4 7.3 12.5 12.2 21 14.6 5 1.4 10.3 1.9 14.7 2.1 0.2 0 0.4 0 0.6 0 3.2 0 5.6-1.5 7-4.4 0.2-0.4 0.4-0.9 0.6-1.3 0.1-0.1 0.1-0.3 0.2-0.5l1.7 0.2c0.3 0 0.7 0.1 1 0.1 0 0 0 0 0 0-0.3-0.6-0.7-1.2-0.9-1.8-0.4-1 0.7-2.7 1.8-3.1 1.2-0.4 1.7-1.8 1.3-3.1-0.5-1.5-0.8-3.1-0.9-4.6 1.1 1.6 1.6 2.4 1.9 3.2 0.6-3.2 0.8-6.4 0.6-9.6 0-0.2 0-0.4 0-0.5 0.6 0 1.1 0 1.7 0 0-0.3-0.1-0.6-0.1-0.8 0-0.6-0.1-1.1-0.1-1.7 0-0.2-0.1-0.4 0-0.5 0.5-0.7 1.1-0.9 2.1-0.5 0.1-0.3 0.3-0.6 0.2-0.8-0.1-0.3-0.4-0.5-0.6-0.7-0.2-0.1-0.4-0.2-0.6-0.3 0 0.1-0.1 0.1-0.1 0.2 0.2 0.3 0.4 0.5 0.6 0.8-0.6 0.7-1.5-0.5-1.8 0.6-0.1 0.6-1.1 0.9-0.3 1.8-0.4-0.2-0.6-0.2-0.9-0.3 0 0.1-0.1 0.1-0.1 0.2 0.3 0.1 0.5 0.2 0.8 0.3 0.1 0.1 0.3 0.2 0.3 0.3 0 0.1-0.1 0.2-0.2 0.3-0.1 0.1-0.2 0.2-0.2 0.3 0.1 0.5-0.2 0.5-0.6 0.6-0.1 0-0.2 0-0.3 0.1-0.2-2-0.5-4.1-0.8-6-0.1-0.4-0.1-0.8-0.2-1.3 0.4-0.1 0.7-0.2 1-0.4 1.2-0.4 2.3-0.8 3.4-1.1 0-0.3 0.3-0.5 0.4-0.8 0.2-0.7 0.9 0.1 1.2-0.4-0.1-0.2-0.3-0.4-0.5-0.6 0 0 0-0.1 0.1-0.1 0.1 0.1 0.3 0.1 0.4 0.2 0.2 0.1 0.4 0.3 0.5 0.5 0.1 0.2-0.1 0.4-0.1 0.6-0.7-0.3-1.2-0.2-1.5 0.4 0 0 0 0.1 0 0.1 0.1 0 0.3-0.1 0.4-0.1 3.4-0.7 6.5-2.1 9.4-4.1C76.3 38.3 76.2 39.8 76 41.3c0.1-0.1 0.1-0.2 0.2-0.3 0.1-0.2 0.2-0.4 0.3-0.7 0.1-0.4 0.3-0.4 0.7-0.2-0.6 0.4-0.9 0.9-0.6 1.6 0.1 0.3-0.2 0.5-0.5 0.4 0 0-0.1 0-0.1 0 0 0.2-0.1 0.4-0.1 0.6-0.6 3.2-1.8 5.7-3.8 8.1l-3 3.5 5.1-0.5c-1.1 2.1-2.9 3.7-5.3 5.1l-6.7 3.8c0 0.1 0 0.1 0 0.2 0 0.4-0.1 0.7-0.2 1.1l4.8-1c-1.7 1.1-3.6 2-5.3 2.5-0.5 1.2-1.3 2.2-2 2.4-0.2 0.2-0.4 0.4-0.7 0.7 0.4 0.3 0.8 0.6 1.3 1 4.9-0.6 12.4-4.8 14.1-8.9l0.8-1.8c1.9-1.9 3.1-4.1 3.9-6.8l0.8-2.7-2.3 0.2c0.1-0.2 0.2-0.5 0.4-0.7 0.4 0 0.6-0.3 0.5-0.6 0-0.1-0.1-0.2-0.1-0.3 0.2-0.5 0.4-1.1 0.6-1.7 0.1-0.1 0.2-0.2 0.4-0.3-0.1-0.1-0.2-0.1-0.2-0.1 0.3-0.8 0.5-1.7 0.7-2.5C80.1 40 80.2 36.6 79.8 32.9zM1.5 5C1.5 4.9 1.5 4.9 1.5 4.8c0.4 0 0.9-0.1 1.3 0 0.1 0 0.1 0.6 0.1 1.1C2.2 5.5 1.9 5.3 1.5 5zM20.4 12.1c1.4 0.7 1.9 1.8 2.2 3.2-0.5-0.5-1.1-1-1.6-1.5-0.2 0.2-0.4 0.4-0.6 0.6-0.1-0.3-0.3-0.6-0.3-1C20.1 13 20.3 12.5 20.4 12.1zM14.4 11.3c0.6 0.5 1 0.9 1.4 1.3-0.1 0.1-0.1 0.1-0.2 0.2C15 12.7 14.3 12.6 14.4 11.3zM3.9 4.6C4.5 4.7 5.2 4.7 5.8 4.8 5.8 4.9 5.8 5 5.8 5.1c-0.6 0-1.3 0.2-1.9-0.1C3.9 4.9 3.9 4.8 3.9 4.6zM6.8 39.8c0.9 0 1.8-0.2 2.7 0 0.2 0.1 0.2 1.3 0.3 2.4-1.4-0.9-2.1-1.4-2.9-1.9C6.9 40.2 6.9 40 6.8 39.8zM43.3 72.1c-0.9-0.4-1.5-0.7-2.2-1.1-0.3-0.2-0.7-0.5-0.6-0.7 0-0.3 0.5-0.8 0.6-0.8 0.8 0.3 1.5 0.7 2.2 1.2C43.5 71 43.3 71.6 43.3 72.1zM50.3 66.1c0.2 0.9 0.4 1.8 0.6 2.7-0.6 0.2-1.3 0.3-1.9 0.4l-0.3-2.4c0-0.1 0-0.1 0-0.2-2.5 1.4-4.3 1.4-5.4 0 1.9 0 3.5 0 5.4 0-0.1-0.7-0.2-1.4-0.3-2.1-0.2-1.6-0.6-3.1-0.9-4.5-0.1 0.1-0.2 0.2-0.4 0.4-0.2-0.7-0.6-1.4-0.6-2 0-0.3 0.1-0.6 0.1-0.8-0.2-0.4-0.3-0.8-0.5-1.1-0.2-0.5-0.5-1-0.8-1.5-1.2-0.2-2.3-0.5-3.4-0.7 0.4-1.1 0.7-1.8 1.3-2.2-1-1-2-1.9-3.3-2.6l2.3 0.1-0.9-2.6c-0.2-0.5-0.3-0.9-0.5-1.4-0.3-1-0.7-2-1.1-2.9-0.1-0.3-0.3-0.6-0.4-0.9 0.7 1 1.4 2.1 2.1 3.1 1.4 2.2 2.6 4.5 3.7 6.8 0.7 0.1 1.6 0.3 2.8 0.7-0.8 0.4-1.3 0.7-2 1.1 0.4 0.8 0.7 1.6 1 2.5 0.1-0.2 0.1-0.4 0.2-0.6 2.9 1.4 4 3.9 4.6 6.9-1.2-1.1-2.3-2.2-3.4-3.1-0.1 0.1-0.1 0.1-0.2 0.2C49.1 61.5 49.7 63.8 50.3 66.1zM54.6 63.3c-0.1 0.3-0.2 0.5-0.3 0.8-0.1 0.4-0.3 0.7-0.4 1.1-0.7-2.9-1.6-5.8-2.6-8.5 0.1-0.1 0.1-0.1 0.2-0.2 0.3 0.2 0.5 0.5 0.8 0.8-0.1-0.7-0.4-1.3-1.1-1.7 0 0.1-0.1 0.3-0.1 0.4-0.1-0.2-0.1-0.3-0.2-0.5 0.1 0 0.1 0 0.2 0-0.1-0.2-0.1-0.3-0.2-0.4 0.2-0.1 0.3-0.2 0.5-0.3-0.4-0.1-0.6-0.2-0.8-0.2-1.6-4.2-3.6-8.1-5.8-11.8-3.8-6.2-8.4-11.6-14-16.3-0.3 0.7-0.6 1.5-0.9 2.2-0.2-0.4-0.5-0.7-0.7-1.1-1.1-0.5-2.3-1-3.4-1.5 1.4-0.2 2.2-0.7 2.4-1.6-3.8-3-8-5.6-12.6-8-0.2-0.1-0.4-0.2-0.6-0.3l-1.7-0.6-1.7 2.8 9.5 8-4.2-0.1-1.3 0.1-1.3 3 2.1 0.7c0.2 0.1 0.4 0.1 0.6 0.2 3.7 0.9 6.8 2.1 9.6 3.6 0.7 0.4 1.3 0.7 1.9 1.1 0.6-0.2 1.2-0.4 1.9-0.5 0.1 0.2 0.2 0.5 0.2 0.7-0.4 0.1-0.8 0.3-1.2 0.4 3.3 2.3 5.7 5.1 7.2 8.4 0.2 0.4 0.4 0.9 0.5 1.4l-7.9-0.4c0-0.5-0.1-1.2-0.4-1.5-0.2-0.2-0.3-0.4-0.3-0.7-0.1-0.2 0-0.4 0-0.6-0.1 0-0.2 0-0.3 0 0 0.6 0 1.2 0 1.9 0.1 0.2 0.2 0.5 0.3 0.8l-12.1-0.6-0.3 3.8 1.7 0.2c0.8 0.1 1.5 0.2 2.3 0.3 1.6 0.2 3.3 0.4 5 0.7l1.6 0.2c2.5 0.4 5.1 0.8 7.6 1.3 4.2 0.9 7 3.2 8.7 6.8 0.9 2 1.6 4.3 2 7.1 0.1 0.4 0.1 0.9 0.2 1.3l-13.3 1.2 1.4 2.1c-2.3-0.7-4.5-1.7-6.6-2.8 0.6 0.9 1.2 1.8 1.8 2.8-0.2 0.1-0.4 0.2-0.5 0.4-0.9-1.3-1.7-2.6-2.6-3.9-2.7-1.6-5.1-3.6-7.3-5.9l2.4 0.5 0.6-1.1c-0.2 0-0.3-0.1-0.5-0.1 0.1-0.6 0-1.2 0.2-1.7 0.1-0.2 0.5-0.3 0.8-0.4l-1.2-0.6C14.7 53.8 10.9 50.3 8.5 45.9c-0.5-1-1-2-1.4-3.1l7.5 0.8-1.6-2.9c-0.4-0.1-0.7-0.2-1.1-0.4 0-0.2 0-0.5 0.1-0.7 0.1 0 0.2 0 0.4 0-3.8-4.4-6.3-9.9-7.6-16.6-0.9-4.8-1.2-10-1-15.8 2.1 1.6 4.4 3.3 7 4.8 0 0 0-0.1 0-0.1 0.2-0.7 0.5-0.7 1.1-0.3-0.3 0.2-0.5 0.4-0.7 0.7 1.9 1 3.8 1.9 6 2.6 3.7 1.2 7.5 2.1 11.3 3 6.1 1.4 11.1 3.8 15.3 7.2 5.6 4.5 9.4 10.4 11.4 17.6 1.8 6.5 1.7 12.8 0 18.9 0.9 2.4 1.7 4.7 2.5 6.9C56.2 67.8 54.9 65.3 54.6 63.3zM39 48c-0.3-0.6-0.5-1.3-0.8-1.9-0.3-0.7-0.6-1.3-0.9-2C39 43.9 39.6 45 39 48zM32.7 33.5c-1.3-1-2.7-2-4.3-2.8-0.3-0.2-0.6-0.4-1-0.5l0.5-1.1C29.6 30.5 31.2 32 32.7 33.5zM79.9 38.4c-0.1-0.2-0.1-0.4-0.2-0.5-0.1-0.2-0.2-0.4-0.3-0.6C79.9 37.2 80 37.5 79.9 38.4zM70.8 36.2c0-0.1 0-0.1 0-0.2 0.3 0 0.5-0.1 0.8 0 0.1 0 0 0.4 0.1 0.7C71.2 36.5 71 36.3 70.8 36.2zM73.4 36.3c-0.4 0-0.8 0.1-1.1-0.1 0-0.1 0-0.1 0-0.2 0.4 0 0.8 0 1.1 0.1C73.4 36.1 73.4 36.2 73.4 36.3zM76.1 35.2c0-0.1-0.1-0.2-0.1-0.3 0.5-0.1 0.9-0.3 1.4-0.4 0 0.1 0 0.1 0.1 0.2C77 34.9 76.6 35.1 76.1 35.2zM78.6 40c0.3 0.3 0.6 0.5 0.8 0.8 0 0-0.1 0.1-0.1 0.1C78.9 40.8 78.5 40.8 78.6 40z" class="a"/><path d="M76.9 31.6l-0.3 0.2c-0.2 0.1-0.3 0.2-0.5 0.4C76.6 32.1 76.8 32 76.9 31.6z" class="a"/><path d="M67.2 31.1c0.1 0.1 0.3 0.3 0.3 0.3 0.2 0 0.4-0.2 0.4-0.4 0.1-1.2-0.3-2.1-1-3.2-0.2 0.7-0.7 1.1-0.3 1.8C66.9 30.1 67 30.6 67.2 31.1z" class="a"/><path d="M86.2 46.5c-0.1 0.4-0.2 0.8-0.2 1.2 0 0.3 0.2 0.5 0.2 0.8 0.2-0.2 0.3-0.3 0.5-0.5 0.4 0.4 0.9 0.8 1.3 1.3C87.8 48.1 87.3 47.1 86.2 46.5z" class="a"/><path d="M85.7 45.8c0.3-0.2 0.5-0.3 0.8-0.5-1.7-0.5-2-0.4-2.4 0.7 0.6 0.1 1.2 0.2 1.9 0.4C85.8 46.1 85.7 45.9 85.7 45.8z" class="a"/><path d="M83.2 30.4c-0.1-0.2 0-0.4 0-0.6-0.1 0-0.2 0-0.3 0 0 0.6 0 1.2 0 1.9 0.1 0.3 0.3 0.8 0.4 1.2 0 0.1 0.1 0.2 0.2 0.2 0.1 0 0.2 0 0.3-0.1 0.3-0.3 0.1-1.6-0.3-1.9C83.4 30.9 83.3 30.6 83.2 30.4z" class="a"/><path d="M83.2 33.4c-0.4 0.5-0.7 0.9-1.1 1.4 0 0.1 0 0.1 0.1 0.2 0.5-0.3 1.1-0.6 1.6-0.9C83.1 34.4 83.4 33.5 83.2 33.4z" class="a"/><path d="M71.2 41.3c0-0.5 0-0.9-0.1-1-0.3-0.1-0.7 0-1.1 0 0 0.1 0 0.1 0 0.2C70.4 40.7 70.7 40.9 71.2 41.3z" class="a"/><path d="M82.2 42.1c0.1 0.3 0.2 0.5 0.4 0.8 0.1 0.2 0.2 0.5 0.3 0.8C83.1 42.4 82.9 41.9 82.2 42.1z" class="a"/><path d="M82.1 47.1c0-0.1 0.1-0.1 0.1-0.2-0.3-0.3-0.7-0.6-1.2-1.1C81 47 81.5 47 82.1 47.1z" class="a"/><path d="M73.7 40.6c0-0.1 0-0.2 0-0.3-0.5 0-1.1-0.1-1.6-0.1 0 0.1 0 0.2 0 0.3C72.6 40.8 73.1 40.7 73.7 40.6z" class="a"/><path d="M82.1 27.6c-0.4-0.4-0.8-0.9-1.2-1.3-0.1 0.1-0.1 0.1-0.2 0.2 0.4 0.4 0.8 0.9 1.2 1.3C82 27.7 82.1 27.7 82.1 27.6z" class="a"/><path d="M31.1 60.3c0 0.3 0.2 0.5 0.2 0.8 0.2-0.2 0.3-0.3 0.5-0.5 0.4 0.4 0.9 0.8 1.3 1.3-0.2-1.2-0.7-2.2-1.8-2.7C31.2 59.5 31.1 59.9 31.1 60.3z" class="a"/><path d="M30.8 58.4c0.3-0.2 0.5-0.3 0.8-0.5-1.7-0.5-2-0.4-2.4 0.7 0.6 0.1 1.2 0.2 1.9 0.4C30.9 58.6 30.9 58.5 30.8 58.4z" class="a"/><path d="M28 56.2c0.2-1.2 0-1.7-0.7-1.5 0.1 0.3 0.2 0.5 0.4 0.8C27.8 55.7 27.9 55.9 28 56.2z" class="a"/><path d="M27.2 59.7c0-0.1 0.1-0.1 0.1-0.2-0.3-0.3-0.7-0.6-1.2-1.1C26.1 59.5 26.7 59.6 27.2 59.7z" class="a"/><path d="M27.3 40.2c-0.4-0.4-0.8-0.9-1.2-1.3-0.1 0.1-0.1 0.1-0.2 0.2 0.4 0.4 0.8 0.9 1.2 1.3C27.2 40.3 27.2 40.2 27.3 40.2z" class="a"/><path d="M48.3 45.9c-0.1 0.2-0.1 0.5-0.2 0.7 0 0.2 0.1 0.3 0.1 0.5 0.1-0.1 0.2-0.2 0.3-0.3 0.3 0.2 0.5 0.5 0.8 0.8C49.3 46.8 49 46.2 48.3 45.9z" class="a"/><path d="M48 45.4c0.2-0.1 0.3-0.2 0.5-0.3-1-0.3-1.2-0.2-1.5 0.4 0.4 0.1 0.7 0.1 1.2 0.2C48.1 45.6 48 45.5 48 45.4z" class="a"/><path d="M46.5 36c0-0.1 0-0.2 0-0.3-0.1 0-0.1 0-0.2 0 0 0.4 0 0.8 0 1.2 0.1 0.2 0.2 0.5 0.3 0.7 0 0 0.1 0.1 0.1 0.1 0.1 0 0.1 0 0.2-0.1 0.2-0.2 0.1-1-0.2-1.2C46.6 36.3 46.5 36.1 46.5 36z" class="a"/><path d="M46.5 37.8c-0.2 0.3-0.4 0.6-0.6 0.8 0 0 0 0.1 0 0.1 0.3-0.2 0.7-0.3 1-0.5C46.4 38.4 46.6 37.9 46.5 37.8z" class="a"/><path d="M45.8 43.1c0.1 0.2 0.2 0.3 0.2 0.5 0.1 0.2 0.1 0.3 0.2 0.5C46.4 43.3 46.3 43.1 45.8 43.1z" class="a"/><path d="M45 33.6c0.2 0.3 0.5 0.5 0.7 0.8 0 0 0.1-0.1 0.1-0.1-0.2-0.3-0.5-0.5-0.7-0.8C45.1 33.5 45 33.5 45 33.6z" class="a"/><path d="M49.4 45.7c0-0.1 0-0.2 0-0.3-0.1 0-0.1 0-0.2 0 0 0.4 0 0.8 0 1.2 0.1 0.2 0.2 0.5 0.3 0.7 0 0 0.1 0.1 0.1 0.1 0.1 0 0.1 0 0.2-0.1 0.2-0.2 0.1-1-0.2-1.2C49.5 46 49.5 45.8 49.4 45.7z" class="a"/><path d="M49.4 47.5c-0.2 0.3-0.4 0.6-0.6 0.8 0 0 0 0.1 0 0.1 0.3-0.2 0.7-0.3 1-0.5C49.3 48.1 49.5 47.6 49.4 47.5z" class="a"/><path d="M48.7 44c-0.2-0.3-0.5-0.5-0.7-0.8 0 0-0.1 0.1-0.1 0.1 0.2 0.3 0.5 0.5 0.7 0.8C48.7 44 48.7 44 48.7 44z" class="a"/></svg>