<svg xmlns="http://www.w3.org/2000/svg" width="96" height="89" viewBox="0 0 96.4 89.2"><style>.a{fill:#E35028;}</style><polygon points="38.5 4.8 38.5 4.8 38.5 4.8 " class="a"/><path d="M17.7 9.9c0 0.1 0.2 0.3 0.3 0.3 0.1 0 0.3-0.2 0.3-0.3 0.1-1-0.3-1.9-0.8-2.8 -0.2 0.6-0.6 1-0.3 1.6C17.4 9 17.5 9.5 17.7 9.9z" class="a"/><path d="M28.2 14.1c0.2-0.5 0.4-0.9 0.5-1.3 -0.3-0.1-0.3-0.1-0.4-1.2 -0.4-0.1-0.8-0.2-0.7 0.4 0.1 0.7-0.1 1-0.9 1.1 0.4 0.2 0.8 0.4 1.2 0.5C28 13.9 28.1 14 28.2 14.1z" class="a"/><path d="M32 11.6c0.1 0 0.2 0 0.2-0.1 0.3-0.3 0.1-1.4-0.2-1.7 -0.2-0.1-0.2-0.4-0.3-0.6 0-0.1 0-0.3 0-0.5 -0.1 0-0.2 0-0.2 0 0 0.5 0 1.1 0 1.7 0.1 0.3 0.2 0.7 0.4 1C31.8 11.5 31.9 11.6 32 11.6z" class="a"/><path d="M32.2 12.5c-0.6 0.2-0.4-0.5-0.5-0.6 -0.3 0.4-0.6 0.8-0.9 1.2 0 0 0 0.1 0.1 0.1C31.3 13 31.8 12.8 32.2 12.5z" class="a"/><path d="M21.2 18.8c0-0.4 0-0.8-0.1-0.8 -0.3-0.1-0.6 0-0.9 0 0 0.1 0 0.1 0 0.2C20.5 18.3 20.8 18.4 21.2 18.8z" class="a"/><path d="M28.4 16.3c0-0.1-0.1-0.2-0.1-0.3 -0.6 0.2-1.1 0.3-1.7 0.5 0 0.1 0.1 0.2 0.1 0.3C27.3 16.7 27.9 16.5 28.4 16.3z" class="a"/><path d="M31.3 20.8c0.2-1.1 0-1.4-0.6-1.3 0.1 0.2 0.2 0.5 0.3 0.7C31.2 20.3 31.3 20.5 31.3 20.8z" class="a"/><path d="M23.4 18.2c0-0.1 0-0.2 0-0.3 -0.5 0-0.9-0.1-1.4-0.1 0 0.1 0 0.2 0 0.2C22.4 18.3 22.9 18.2 23.4 18.2z" class="a"/><path d="M19.4 15c0 0-0.2-0.2-0.3-0.3 -0.2 0.5-0.4 0.8-0.5 1.2C19.3 16 19.2 15.3 19.4 15z" class="a"/><path d="M85.9 53c1-0.4 2-0.8 3-1.2 -0.6-2.8-1.5-5.4-2.6-8 -0.1 0.3-0.3 0.6-0.4 0.9 -0.6-0.7-1.3-1.3-1.6-2.1 -0.4-1.2-0.4-2.5-0.6-3.7 0 0 0.1 0 0.1 0 -0.5-0.8-1-1.6-1.6-2.4 -0.2 0.3-0.5 0.6-0.7 0.9 0.2 0.2 0.6 0.6 1.5 1.4 -0.9 0.2-1.8 0.3-2.6 0.5C83.1 43.5 85 48.1 85.9 53z" class="a"/><path d="M73.6 28.6c-4.2-2.1-8-0.3-9.3 4.2 -3 9.9 5.7 30.5 14.9 35.4 4.2 2.2 7.9 0.9 10.1-4.4 0.1-1.3 0.7-3.6 0.5-5.8 -0.1-1.8-0.4-3.5-0.7-5.2 -1 0.9-2 1.3-3 1.4 0.3 1.8 0.4 3.6 0.5 5.4 0.1 0.2 0.1 0.4 0.2 0.5 -0.1 0-0.1 0-0.1 0 0 1.9-0.9 4.8-2.3 5.5 -1.3 0.7-4.4-0.3-5.7-1.6 -7.8-7.7-12-17.1-11.6-28.2 0.1-1.8 0.5-3.1 1.3-3.9 -0.4-0.4-0.8-0.8-1.2-1.2 1.1-0.7 1.9-0.5 2.6 0.4 1-0.2 2.2-0.1 3.6 0.6 0.5 0.4 1.5 1 2.3 1.9 0.9 0.9 1.7 1.9 2.5 2.9 0.7-0.5 1.7-0.8 3.2-1 -0.7-0.9-1.4-1.8-2.2-2.7C77.7 31 75.7 29.6 73.6 28.6z" class="a"/><path d="M52.9 42.6c0 0.1 0.1 0.2 0.1 0.4 0.6-0.1 1.2-0.2 1.8-0.2 -0.1-0.2-0.3-0.5-0.4-0.7C53.9 42.2 53.4 42.4 52.9 42.6z" class="a"/><path d="M40.6 54.9c-0.1-0.2-0.3-0.3-0.5-0.3 -0.8 0.6-1.2 1.3-1 2 0 0.2 0.3 0.5 0.5 0.4C40.1 56.9 40.8 55.5 40.6 54.9z" class="a"/><path d="M19.6 61.2c0.2 0.1 0.5 0 0.7-0.1 0.1 0 0.1-0.3 0.1-0.4 -0.1-0.5-0.2-1-0.3-1.6 -0.3 0.3-0.5 0.5-0.7 0.7C19 60.2 19.1 60.9 19.6 61.2z" class="a"/><path d="M10.7 62.5c0.2 0.2 0.5 0.3 0.9 0.6 -0.1-1.3-0.6-1.8-1.5-2 -0.1 0-0.4 0.1-0.4 0.2 -0.1 0.1 0 0.4 0.1 0.5C10 62.1 10.3 62.3 10.7 62.5z" class="a"/><path d="M28.5 69.7c0-0.3 0.1-0.6-0.1-0.8 -0.2-0.2-0.5-0.2-0.8-0.3 -0.1 0.1-0.1 0.2-0.2 0.3 0.3 0.3 0.6 0.6 0.9 1C28.4 69.8 28.5 69.8 28.5 69.7z" class="a"/><path d="M24.4 56.1c0 0.1 0.2 0.4 0.3 0.4 0.2 0 0.4-0.1 0.5-0.3 0.1-0.2 0.2-0.5 0.3-0.7 -0.2 0-0.5 0-0.7 0.1C24.6 55.7 24.4 55.9 24.4 56.1z" class="a"/><path d="M45 49.9l0.4 0.5 9.9-11.6 -1.8-1.7 -0.3 0.1c-5.4 1.8-7.8 6.5-9.4 10.7l-0.1 0.3 0.7 0.9c0 0 0 0 0 0C44.7 49.7 44.8 49.9 45 49.9z" class="a"/><path d="M58.3 71.7c-0.5 0.1-1.1 0.1-1.6 0.2 -0.2-0.1-0.3-0.2-0.5-0.2 0.1 0.6 0.2 1.2 0.3 1.6 0.4-0.1 0.4-0.1 1.2 1 0.5-0.1 0.9-0.3 0.5-0.9C57.6 72.8 57.6 72.3 58.3 71.7z" class="a"/><path d="M56.2 57.9c0.2 0 0.7-0.2 1.1-0.4 0.1-0.1 0.3-0.4 0.3-0.6 0.1-0.5 0.1-1.1 0.1-1.8 -0.6 0.5-1 0.8-1.3 1.1C55.6 56.9 55.5 57.8 56.2 57.9z" class="a"/><path d="M41 61.5c-0.2 0-0.6 0.2-0.7 0.4 -0.1 0.2-0.1 0.4 0 0.5 0.4 0.2 0.8 0.3 1.2 0.5 0.3 0.1 0.6 0.2 1.1 0.4C42.9 61.8 42.4 61.4 41 61.5z" class="a"/><path d="M41.6 67.3c0.5-0.9 0.5-0.9-0.8-1.2C40.5 67.3 40.5 67.3 41.6 67.3z" class="a"/><path d="M54.8 69.7c0.5-0.5 1-1.1 1.5-1.6 -0.1-0.1-0.2-0.2-0.3-0.3 -0.5 0.6-0.9 1.1-1.4 1.7C54.6 69.5 54.7 69.6 54.8 69.7z" class="a"/><path d="M65.1 63.6c-0.8 0.4-0.3 1-0.3 1.5 0 0.1 0.4 0.1 0.5 0.2C65.3 64.6 65.2 64.1 65.1 63.6z" class="a"/><path d="M84 76.7c-0.5-0.2-0.8-0.3-1.2-0.4C83.1 77.1 83.3 77.2 84 76.7z" class="a"/><path d="M58.3 80.8c0.6 0.2 1.2 0.4 1.8 0.6 0-0.1 0-0.2 0.1-0.2 -0.6-0.2-1.2-0.3-1.8-0.5C58.3 80.7 58.3 80.8 58.3 80.8z" class="a"/><path d="M51.4 80.6c0-0.3 0-0.5 0-1 -0.5 0.4-0.8 0.6-1.1 0.8C50.7 80.5 51 80.5 51.4 80.6z" class="a"/><path d="M78.6 24.4c0 0.2-0.2 0.5-0.3 0.7 -0.1 0.1-0.6 0-0.8-0.1 -0.7-0.5-1.3-1.2-2.1-1.7 -0.3-0.2-0.5-0.4-0.7-0.7 -2.9-1-6.9-1.5-10-0.3l-0.4 0.2c-13.4 5.3-22.5 13.6-27.9 25.5 -1 2.1-2 4.2-3.2 6.2 0.2 0 0.5 0 0.7 0 -0.3 0.2-0.6 0.2-0.9 0.3 -2.7 4.5-6.2 8.3-11.4 10.4 -1.2 0.5-2.4 0.8-3.7 1.1 -1.4 0.3-4.1 0.6-6.3-0.1 -0.1-0.2-0.3-0.3-0.8-0.6 0 0.1 0 0.2 0 0.3 -3.9-1.3-6.8-0.6-9 2.1 -2.6 3.2-2.5 6.8 0.1 10.2 1 1.2 1.6 2.7 1.8 4 0.6 4.3 3 6.8 7.1 7.3 4 0.5 6.8-1.6 8.3-5.9 0.4-1.2 1-2.8 1.9-3.3 8.8-5.3 17.5-6.3 26-3 -0.1 0.4 0.1 0.8-0.1 1.2 0.5-0.2 0.8-0.6 0.9-0.9 0.6 0.3 1.3 0.5 1.9 0.7 0-0.6 0.1-1.3 0-1.9 -0.1-1 0.5-1.4 1.1-2l-0.1 0c-2.5-0.8-5-1.6-7.6-2.1l-0.5-0.1c-7.4-1.4-7.4-1.4-9.7-8 -0.3-0.9 0.2-2.6 0.8-3.7 1.8-3.3 3.7-6.6 5.6-9.8 0.7-1.2 1.4-2.4 2.1-3.5 1.1-1.9 2.3-3.6 3.6-5.3 -0.3-0.2-0.6-0.3-1-0.5 0.2-0.2 0.6-0.6 0.7-0.5 0.2 0.2 0.6 0.3 0.9 0.4 1.5-1.9 3.1-3.6 4.9-5.2 0.1-0.8 0.2-1.6 0.3-2.5 0.2 0 0.3 0.1 0.5 0.1 0 0.6 0.1 1.2 0 1.7 1.9-1.7 4.1-3.2 6.4-4.6 -0.8 5.9-0.6 11.4 0.4 16.5 0.3-0.3 0.6-0.7 1-0.8 0.4-0.1 0.9 0.3 1.4 0.4 -0.8 1.5-0.5 2.7 0.7 3.5 0.2 0.1 0.6 0.1 0.9 0.1 0.3 0 0.7 0 1 0 -1.6-5-2.2-10.1-1.6-15.2 0.2-1.8 0.6-3.4 1.3-4.8 0-0.1 0-0.2-0.1-0.3 0.1-0.1 0.3-0.2 0.4-0.3 0.3-0.5 0.6-1 0.9-1.4 0-0.4-0.3-0.7-0.9-1.1 -0.5-0.3-1-0.5-1.6-0.7 -1-0.3-1-0.8-0.4-1.6 1 1.4 2 2.3 3.7 1.8 0.3-0.1 0.5 0 0.7 0.1 0.5-0.4 1.1-0.8 1.7-1 3-1.2 6.7-0.2 10.2 2.7 11 9.2 15.8 20.9 14.3 34.9 -0.4 4.1-2.1 6.8-4.9 7.9 -2.5 1-5.8 0.6-9.6-1 -0.4-0.4-0.9-0.8-1.5-1.4 -1.6-1.5-3.9-3.5-5.7-5.8 -2.9-3.9-5.1-7.9-6.6-12 -0.1 0.1-0.2 0.2-0.2 0.3 -0.1 0.1-0.1 0.2-0.2 0.3 -0.2 0-0.3 0-0.4 0.1 -0.1 0-0.1 0.1-0.1 0.1 0.1-0.2 0.2-0.5 0.4-0.9 -1.6 1.3-2.1-0.3-3-0.6 -1.7-0.5 0.3-2-0.8-3 -0.2 0.2-0.4 0.3-0.7 0.5 0.5 2.5 1.3 5 2.3 7.3 0.2 0 0.3 0.1 0.4 0.2 0.1 0.1 0.1 0.5 0 0.8 2.2 4.8 5.3 9.3 9.3 13.4 -0.1-0.1-0.1-0.1-0.2-0.2 -0.1-0.1-0.4-0.1-0.5-0.1 -0.1 0.1-0.2 0.4-0.1 0.5 0.5 1.1 1.5 1.8 2.6 2.3 -0.1-0.4-0.1-0.7-0.2-1 1.4 1.3 2.9 2.6 4.4 3.8 -7.8 2.1-14.9 2.1-22.1 0.1 0-0.2 0-0.5 0.1-0.7 0 0-0.1-0.1-0.1-0.1 -0.1 0.2-0.3 0.4-0.4 0.7 -0.5-0.1-0.9-0.2-1.4-0.4l-0.8-0.3c0.2 1.5 0.2 2.8-0.4 4.1 7.2 2.4 14.6 2.9 22.2 1.5 0 0 0 0 0 0 0.1 0 0.2-0.1 0.4-0.1 0 0 0 0.1 0 0.1 2.5-0.5 5.1-1.2 7.7-2.1 -0.1 0-0.1 0-0.2 0 0.6-0.7 1.1-1.3 1.7-1.8 0.2-0.2 0.5-0.4 0.6-0.3 0.3 0.2 0.7 0.4 0.7 0.7 0 0.2 0 0.3 0 0.5 0 0 0 0 0 0 0.7-0.3 1.4-0.6 2.1-0.9 2.3-1 4.2-2.8 6.1-4.5 0.8-0.8 1.7-1.6 2.6-2.3l0.1-0.1 0-0.1C99.8 54.5 91 32.2 78.6 24.4zM31.5 59.2c0.7 0.4 0.7 0.4 0.3 1.5C31.1 59.9 31.1 59.9 31.5 59.2zM30.4 62.4c0.3 0.4 0.4 0.7 0.6 0.9 0.2 0.3 0.5 0.7 0.6 1 0.1 0.1 0 0.4 0 0.5 -0.1 0.1-0.4 0.1-0.5 0C30.3 64.3 30.1 63.7 30.4 62.4zM29.4 65.8c0 0 0 0 0 0 0 0 0 0 0 0C29.4 65.8 29.4 65.8 29.4 65.8zM17.3 67c0.5 0.4 1 0.8 1.5 1.2 0 0.1-0.1 0.1-0.1 0.2 -0.5-0.4-1-0.8-1.6-1.1C17.2 67.2 17.3 67.1 17.3 67zM4 75.2c-0.1 0-0.3-0.1-0.4-0.2 -0.3-0.5-0.5-1-0.9-1.4 -0.6-0.7-0.1-1.3 0-2 0.9 1 1.6 1.9 1.7 3.2C4.4 74.9 4.2 75.1 4 75.2zM6.1 82.1c0.1-0.5 0.2-1 0.3-1.6 0.1 0.1 0.5 0.3 0.4 0.3C6.7 81.3 7 82.1 6.1 82.1zM8.6 84.5c0-0.1 0-0.2-0.1-0.2 0.4-0.1 0.8-0.2 1.1-0.2 0.1 0 0.2 0.5 0.3 1C9.3 84.8 9 84.6 8.6 84.5zM16.3 81.5c-0.1-0.1-0.1-0.2-0.2-0.4 0.7-0.3 1.3-0.7 2-1 0.1 0.1 0.1 0.2 0.2 0.3C17.6 80.7 17 81.1 16.3 81.5zM22 74.8c-0.5 0.4-1 0.8-1.5 1.2 0-0.1-0.1-0.1-0.1-0.2 0.1-0.1 0.1-0.3 0.2-0.4 -0.5 0.3-1.1 0.5-1.6 0.9 -0.5 0.3-1.1 0.8-1.6 1.3 0 0 0 0.1 0 0.1 0 0 0 0 0 0 -0.9 1-1.7 2.3-2 3.5 -0.8 3.2-2.1 4.5-4.3 3.8 -0.9-0.3-1.7-1.9-2.3-3.3 -0.3-0.5-0.5-1.1-0.8-1.5 -0.8-1.4-1.4-2.8-1.8-4.1 -0.1-0.5-0.3-1-0.5-1.6 -0.5-1.5-1.1-3.1-0.7-4 0.4-0.7 0.9-1.2 1.4-1.4 1.3-0.5 3 0.3 4.2 1.1 0.6 0.4 1.3 0.7 2.1 0.8 -0.6 0.3-1.3 0.4-1.8 1 0.4-0.1 0.8-0.3 1.1-0.4 0.3-0.1 0.5-0.4 0.8 0.1 0.3 0.4 0.5 0.3 0.8 0 0.3-0.3 0.4-0.6 0.3-0.9 0.1-0.1 0.2-0.3 0.2-0.4 0.1 0 0.2 0.1 0.2 0.1 0 0-0.1 0.1-0.1 0.1 0.2 0 0.3 0 0.5 0.1 -0.1 0.2-0.1 0.5-0.2 0.7 0.7 0 1.3-0.1 1.9-0.2 1.7-0.5 3.7-1.4 5.6-2.2 1.5-0.7 3-1.4 4.6-1.9 0.8-0.3 2-0.1 2.8 0.3 -0.1-0.2-0.2-0.5-0.3-0.7 0.1 0 0.2 0.1 0.3 0.1 0.1-0.1 0.1-0.1 0.2-0.2 0.2 0.2 0.4 0.3 0.5 0.5 0.2-0.2 0.4-0.4 0.5-0.7 0.1-0.3 0.1-0.6 0.2-1 0.3 0.4 0.5 0.7 0.7 1 -0.8 1 0.6 0.7 0.6 1.3 -0.1 0.1-0.2 0.1-0.4 0.2 0.2 0.4 0.6 0.8-0.1 1.1 -0.2-0.3-0.5-0.6-0.7-0.9 -0.1 0-0.2 0.1-0.3 0.1 0.1 0.4 0.1 1 0.4 1.3 0.2 0.3 0.8 0.3 1.2 0.4 0 0.7-0.6 0.3-0.9 0.5 -0.4-0.1-0.8-0.2-1.3-0.3 0 0.4 0.1 0.7 0.1 1 -0.1 0-0.2 0.1-0.3 0.1 -0.2 0.1-0.4 0.3-0.6 0.4 0 0 0 0 0 0 -0.3-0.3-0.5-0.6-0.8-0.9 -0.1 0-0.1 0.1-0.2 0.1 0.2 0.5 0.3 0.8 0.4 1.1 -0.3 0.2-0.6 0.3-0.9 0.4 -0.1 0.1-0.3 0.1-0.4 0.2 0.5-0.1 1-0.2 1.5-0.3 0 0.1 0.1 0.1 0.1 0.1 -0.6 0.1-1.2 0.2-1.7 0.2 -0.8 0.4-1.7 0.7-2.5 1 -1.1 0.4-2.2 0.9-3.2 1.3C21.9 74.8 22 74.8 22 74.8zM31.2 72.2c0 0 0.1 0 0.1 0 0 0 0 0 0 0C31.3 72.2 31.3 72.2 31.2 72.2zM27.4 76.3c-0.2-0.8 0.2-1.3 1.2-1.4C28.1 75.4 28.4 76.4 27.4 76.3zM33.1 71.1c0.6 0 1.2-0.3 1.8-0.5 0 0.1 0.1 0.2 0.1 0.3 -0.8 0.2-1.5 0.4-2.3 0.6 -0.1-0.1-0.1-0.2 0-0.4 0-0.1 0-0.2 0.1-0.2C32.8 71.1 33 71.1 33.1 71.1zM85 34.6c-0.1-0.8-0.2-1.6-0.3-2.7 0.3 0.1 0.8 0.2 0.8 0.3C85.5 33 86.3 34 85 34.6zM62 52.3c0 0 0 0 0 0.1 0 0 0 0-0.1 0C62 52.3 62 52.3 62 52.3zM90.3 70.8c-0.5-0.5-0.9-0.5-1.4-0.2 -0.1 0.1-0.1 0.2-0.1 0.3 -0.1 0.3-0.2 0.7-0.4 1 -0.1 0.2-0.1 0.3-0.2 0.5 -0.4-0.2-0.9-0.4-1.3-0.5 0 0 0-0.1 0-0.1 0.2 0 0.4 0.1 0.5 0.1 0.2 0.1 0.4 0.1 0.5-0.2 0-0.1 0.1-0.1 0.2-0.1 0.1 0 0.2-0.1 0.2-0.1 0-0.1-0.1-0.2-0.1-0.3 -0.1-0.1-0.3-0.3-0.4-0.4 0 0 0.1-0.1 0.1-0.1 0.1 0.1 0.2 0.2 0.4 0.4 -0.3-0.7 0.4-0.7 0.6-1 0.4-0.6 0.7 0.4 1.2 0.1 -0.1-0.2-0.1-0.4-0.2-0.6 0 0 0.1-0.1 0.1-0.1 0.1 0.1 0.2 0.2 0.3 0.3 0.1 0.2 0.2 0.4 0.2 0.6C90.7 70.5 90.5 70.6 90.3 70.8zM93.4 52c0.5 0.1 0.5 0.3 0.2 0.8C93.5 52.5 93.4 52.3 93.4 52zM93.7 66.1c0.2-0.2 0.4-0.4 0.7-0.7 0 0.1 0.1 0.3 0.1 0.3C94.3 65.9 94.2 66.4 93.7 66.1zM94.7 68.9c-0.2-0.4-0.4-0.6-0.5-0.8 0 0 0-0.1 0-0.1 0.2 0.1 0.5 0.1 0.6 0.3C95 68.3 94.8 68.6 94.7 68.9zM94.9 61.9c-0.1 0-0.1-0.2-0.1-0.3 0-0.3 0-0.7 0-1 -0.1-0.5 0.4-0.7 0.7-1 0.1 0.8 0.2 1.5-0.2 2.2C95.2 61.9 95.1 61.9 94.9 61.9z" class="a"/><path d="M23.8 35.7c0 0.1 0 0.2 0 0.3 -0.4 0-0.8 0.1-1.2 0l0.4 0.6c0.1 0.2 0.3 0.8 0.5 1.1l0 0 0.8 1.1 0.3 0.4c1.1 1.3 2.6 2 4.7 2.5 1.2 0.2 2.1 0.5 2.9 0.9l0.3 0.1c0.4 0.1 0.6 0.2 0.8 0.4l1 0.4 0.2-0.5c0.1-0.3 0.2-0.5 0.4-0.8 0.2-0.4 0.5-0.8 0.6-1.4l0.1-0.3 -0.3-0.2c-1.1-0.8-2.3-1.1-3.5-1.5 -0.3-0.1-0.7-0.2-1-0.3 -0.1 0-0.1 0-0.2-0.1 0.3-0.3 0.5-0.5 0.7-0.8 -0.1-0.2-0.1-0.3-0.2-0.5 0.2 0 0.3 0 0.5 0.1 0.1-0.1 0.2-0.2 0.2-0.4 0.3-0.6 0.4-1.1 0.5-1.7 1.1 1 2.4 1.9 4.1 1.9 0.4 0 0.8-0.1 1.3-0.2l0.2 0 0.1-0.1c1.2-1.3 2.2-2.7 3.2-4.1l0.1-0.1 0-0.2c0-1.2-0.5-2.3-1-3.4 1.4 0.2 2.7 0 4.1-0.5 2-0.9 3.3-2.3 3.9-4.4 0.1-0.4 0.2-0.7 0.2-1.1l0.2-0.3 -0.2 0.1c0.3-2-0.1-3.7-1.2-5.3 -0.3-0.4-0.5-0.7-0.9-1l-2.6-1.2 -0.8 1.6c-0.3-0.4-0.7-0.8-0.8-1.2l-0.1-0.4 -0.4 0.1c-0.8 0.1-1.5 0-2-0.4 0.7 0 1.3 0 1.9-0.1l0.4-0.1 0-0.4c0-0.3 0-0.5-0.1-0.8 0-0.1 0-0.3 0-0.4 0.7 0.1 1.3 0.3 2 0.7l0.3 0.1 0.2-0.2c1-0.8 1.7-1.8 2.2-2.8 0.1 0.1 0.1 0.2 0.2 0.3 0.1 0.2 0.2 0.4 0.3 0.5 1.4 2.2 3.3 3.4 5.4 3.4 1.4 0 2.8-0.6 4.2-1.6 0.6-0.5 0.9-1.1 1.2-1.7 0.4 1.1 0.6 2 0.6 2.8 0.1 2 0.7 3.8 1.8 5.6l0.2 0.3 0.6-0.2c0.8-0.2 1.5-0.4 2.3-0.8l0.5-0.3 -0.4-0.5c-1-1.3-1.5-2.5-1.6-3.7l0 0 -0.1-0.4c0.1-0.8-0.2-1.6-0.4-2.3l0-0.1c-0.1-0.2-0.1-0.3-0.1-0.5l0-0.1 0-0.1c-0.1-0.2-0.1-0.4-0.2-0.6 -0.1-0.4-0.2-0.9-0.5-1.3l-0.1-0.2c-0.6-1.2-1.3-2.5-2.3-3.6l-0.2-0.1c-0.1 0-0.2-0.1-0.3-0.4 -0.7-0.8-1.8-1.8-3.2-2.1l-0.7-0.2c-0.2 0-0.3 0-0.5-0.1 -0.6-0.1-1.2-0.2-1.9-0.1l-0.4 0 -0.4 0.1 -0.9 0.6 0.6 0.4c0.1 0.1 0.2 0.1 0.4 0.2 0.2 0.1 0.3 0.1 0.3 0.2l0.1 0.1c0.3 0.3 0.6 0.5 0.9 0.7 0.3 0.2 0.5 0.3 0.8 0.6 1 0.9 1.7 2 2 3.3 0.3 1.1 0 1.9-0.9 2.4 -1.1 0.7-2.2 0.6-3-0.2 -1.1-1.1-1.9-2.4-2.3-4.2 -0.1-0.5-0.2-1.1-0.1-1.7l0-0.1L48.4 4.4c-0.5-1.1-0.9-2.2-2.1-2.9 -0.2-0.1-0.4-0.3-0.6-0.4 -0.5-0.4-1.1-0.8-1.8-0.9 -0.6-0.1-1.2-0.1-1.8-0.2 -0.3 0-0.7 0-1 0 -0.6-0.1-1.1 0.2-1.4 0.5 -0.2 0.2-0.3 0.4-0.3 0.6 0 0.3 0.3 0.5 0.4 0.6 0 0 0 0 0 0l0 0.5 0.6-0.2c0 0 0 0 0.1 0.1 1 0.7 1.9 1.7 2.6 2.8 0.5 1 0.8 2 0.7 3 -0.1 1.7-0.7 2.7-2 3.3 -0.5 0.2-0.9 0.3-1.4 0.4l-1.1 0.1 0.3 0.4 -3.8 0.5c0-1.2 0.3-1.8 0.8-2.2l0.4-0.3L36.9 9.6c-0.3-0.5-0.6-1.2-0.8-1.9 -0.1-0.3-0.1-0.6-0.2-1l0-0.4 -0.2-0.4 -0.7-0.1 -0.7 1.3c-0.5 1.6-0.5 3.3 0 5.2 0 0.1 0.1 0.1 0.1 0.2 0 0 0 0.1 0 0.1l0 0.2 0.1 0.2c0.1 0.2 0.2 0.4 0.3 0.7 0.9 2.1 2.4 4.6 5.8 5.1l2-0.1 0.1 0c0.2-0.1 0.3-0.1 0.5-0.1l0.1 0.2 0.1-0.2c0.3 0 0.6 0.2 0.9 0.5 0 0 0.1 0.1 0.1 0.1 0.9 1 1.1 2.1 0.6 3.8 0 0.3-0.1 0.5-0.3 0.8 -0.1 0.2-0.2 0.4-0.4 0.5l-1.2 1.4 2-0.7c-1.1 0.8-2.1 1-3.1 0.6l-0.2-0.1 -0.2 0.1c-0.3 0.1-0.5 0.1-0.9-0.1l-0.1 0c-0.5-0.2-1-0.6-1.4-1 -0.6-0.6-0.9-1.5-1.2-2.4 -0.2-0.5-0.3-1.1-0.6-1.6l-0.1-0.2 -0.8-0.1 -0.2 0.4c-0.5 1.3-0.7 2.6-0.9 3.9l-0.1 0.5 0 0.2 0.3 2.4 0.1 0.2c0.2 0.4 0.4 0.8 0.6 1.2 0.5 0.9 0.9 1.8 1.3 2.7 0.3 0.6 0.2 1.2-0.2 1.6 -0.3 0.4-0.8 0.4-1.6 0.3 -0.5-0.1-0.9-0.4-1.1-0.8 -0.5-0.7-0.8-1.7-0.6-2.6l0-0.3 -0.3 0 0.2 0 -0.1-0.4c-0.5-2.1-2-3.5-3.2-4.3 -0.1-0.1-0.4-0.3-0.5-0.4l-0.2-0.1c-0.1 0-0.9-0.4-1-0.5l-0.4-0.1c-0.2-0.1-1.2-0.2-1.4-0.1l-1-0.1c0 0-3 0.3-3.2 1.2l-0.1 0.3 0.3 0.2c0.7 0.5 1.3 1 1.8 1.5 0.2 0.2 0.4 0.4 0.7 0.6 0.3 0.5 0.5 0.7 0.6 0.9 0.1 0.1 0.1 0.2 0.2 0.4 0.2 0.4 0.5 0.9 0.6 1.2l0 0.1c0.1 0.2 0.2 0.4 0.3 0.5 0.1-0.2 0.2-0.4 0.1-0.8 -0.1-0.6 0.3-0.5 0.7-0.4 0 1.1 0 1.1 0.4 1.2 -0.1 0.3-0.3 0.8-0.5 1.3 -0.1-0.1-0.2-0.3-0.2-0.4 0 0 0 0 0 0 0.3 0.7 0.6 1.6 0.7 2.5 0.1 1.3-0.5 2.2-1.6 2.4l-0.8 0 -0.1 0c-0.4 0.1-0.7-0.1-1.1-0.3 -0.2-0.1-0.3-0.1-0.5-0.2l-3.1-2.2 0.5 1.9C22.9 35.7 23.4 35.7 23.8 35.7zM31.8 26.6c0.1 0 0.2 0 0.2 0 0 0.2 0 0.3 0 0.5 0.1 0.2 0.1 0.5 0.3 0.6 0.3 0.3 0.5 1.4 0.2 1.7 0 0.1-0.1 0.1-0.2 0.1 -0.1 0-0.1-0.1-0.2-0.1 -0.1-0.4-0.3-0.8-0.4-1C31.8 27.7 31.8 27.1 31.8 26.6zM32.1 29.8c0.2 0.1-0.1 0.8 0.5 0.6 -0.5 0.2-0.9 0.5-1.4 0.7 0 0 0-0.1-0.1-0.1C31.5 30.6 31.8 30.2 32.1 29.8z" class="a"/></svg>